<svg xmlns="http://www.w3.org/2000/svg" viewBox="0 0 750 424" width="750" height="424" font-family="sans-serif">
<style>
  .pd-bg { fill: #ffffff; }
  .pd-title { font: 600 18px sans-serif; fill: #111827; }
  .pd-season { font: 400 13px sans-serif; fill: #6b7280; }
  .pd-header { font: 600 12px sans-serif; fill: #374151; text-anchor: middle; }
  .pd-meta { font: 400 11px sans-serif; fill: #6b7280; }
  .pd-box { fill: #ffffff; stroke: #d1d5db; stroke-width: 1; }
  .pd-divider { stroke: #e5e7eb; stroke-width: 1; }
  .pd-team { font: 400 13px sans-serif; fill: #1f2937; }
  .pd-score { font: 400 13px sans-serif; fill: #1f2937; text-anchor: end; }
  .pd-win .pd-team, .pd-win .pd-score { font-weight: 700; fill: #065f46; }
  .pd-crest-frame { fill: none; stroke: #d1d5db; stroke-width: 1; }
  .pd-link { fill: none; stroke: #cbd5e1; stroke-width: 1.5; }
  @media (prefers-color-scheme: dark) {
    .pd-bg { fill: #0f172a; }
    .pd-title { fill: #f8fafc; }
    .pd-season { fill: #94a3b8; }
    .pd-header { fill: #cbd5e1; }
    .pd-meta { fill: #94a3b8; }
    .pd-box { fill: #1e293b; stroke: #334155; }
    .pd-divider { stroke: #334155; }
    .pd-team { fill: #e5e7eb; }
    .pd-score { fill: #e5e7eb; }
    .pd-win .pd-team, .pd-win .pd-score { fill: #34d399; }
    .pd-crest-frame { stroke: #334155; }
    .pd-link { stroke: #475569; }
  }</style>
<rect class="pd-bg" width="750" height="424"/>
<text class="pd-title" x="20" y="28">FA Cup</text>
<text class="pd-season" x="97" y="28">2025-26</text>
<text class="pd-header" x="115" y="56">Quarterfinals</text>
<text class="pd-header" x="375" y="56">Semifinals</text>
<text class="pd-header" x="635" y="56">Final</text>
<path class="pd-link" d="M 470 112 L 505 112 L 505 144 L 540 144"/>
<path class="pd-link" d="M 470 200 L 505 200 L 505 168 L 540 168"/>
<text class="pd-meta" x="20" y="82">QF1</text>
<rect class="pd-box" x="20" y="88" width="190" height="48" rx="3"/>
<line class="pd-divider" x1="20" y1="112" x2="210" y2="112"/>
<g class="pd-win">
<text class="pd-team" x="30" y="104">Manchester City</text>
<text class="pd-score" x="202" y="104">2</text>
</g>
<g class="">
<text class="pd-team" x="30" y="128">Newcastle</text>
<text class="pd-score" x="202" y="128">1</text>
</g>
<text class="pd-meta" x="20" y="170">QF2</text>
<rect class="pd-box" x="20" y="176" width="190" height="48" rx="3"/>
<line class="pd-divider" x1="20" y1="200" x2="210" y2="200"/>
<g class="">
<text class="pd-team" x="30" y="192">Chelsea</text>
<text class="pd-score" x="202" y="192">1 (3)</text>
</g>
<g class="pd-win">
<text class="pd-team" x="30" y="216">Arsenal</text>
<text class="pd-score" x="202" y="216">1 (4)</text>
</g>
<text class="pd-meta" x="20" y="258">QF3</text>
<rect class="pd-box" x="20" y="264" width="190" height="48" rx="3"/>
<line class="pd-divider" x1="20" y1="288" x2="210" y2="288"/>
<g class="pd-win">
<text class="pd-team" x="30" y="280">Liverpool</text>
<text class="pd-score" x="202" y="280">3</text>
</g>
<g class="">
<text class="pd-team" x="30" y="304">Aston Villa</text>
<text class="pd-score" x="202" y="304">0</text>
</g>
<text class="pd-meta" x="20" y="346">QF4</text>
<rect class="pd-box" x="20" y="352" width="190" height="48" rx="3"/>
<line class="pd-divider" x1="20" y1="376" x2="210" y2="376"/>
<g class="">
<text class="pd-team" x="30" y="368">Manchester United</text>
</g>
<g class="">
<text class="pd-team" x="30" y="392">Tottenham</text>
</g>
<text class="pd-meta" x="280" y="82">SF1</text>
<rect class="pd-box" x="280" y="88" width="190" height="48" rx="3"/>
<line class="pd-divider" x1="280" y1="112" x2="470" y2="112"/>
<g class="">
<text class="pd-team" x="290" y="104">TBD</text>
</g>
<g class="">
<text class="pd-team" x="290" y="128">TBD</text>
</g>
<text class="pd-meta" x="280" y="170">SF2</text>
<rect class="pd-box" x="280" y="176" width="190" height="48" rx="3"/>
<line class="pd-divider" x1="280" y1="200" x2="470" y2="200"/>
<g class="">
<text class="pd-team" x="290" y="192">TBD</text>
</g>
<g class="">
<text class="pd-team" x="290" y="216">TBD</text>
</g>
<rect class="pd-box" x="540" y="132" width="190" height="48" rx="3"/>
<line class="pd-divider" x1="540" y1="156" x2="730" y2="156"/>
<g class="">
<text class="pd-team" x="550" y="148">Winner SF1</text>
</g>
<g class="">
<text class="pd-team" x="550" y="172">Winner SF2</text>
</g>
</svg>