<svg xmlns="http://www.w3.org/2000/svg" viewBox="0 0 818 408" width="818" height="408" font-family="sans-serif">
<style>
  .pd-bg { fill: #ffffff; }
  .pd-title { font: 600 18px sans-serif; fill: #111827; }
  .pd-season { font: 400 13px sans-serif; fill: #6b7280; }
  .pd-header { font: 600 15px sans-serif; fill: #374151; text-anchor: middle; }
  .pd-meta { font: 400 11px sans-serif; fill: #6b7280; }
  .pd-meta-id { font-weight: 700; }
  .pd-box { fill: #ffffff; stroke: #d1d5db; stroke-width: 1; }
  .pd-divider { stroke: #e5e7eb; stroke-width: 1; }
  .pd-team { font: 400 13px sans-serif; fill: #1f2937; }
  .pd-score { font: 400 13px sans-serif; fill: #1f2937; text-anchor: end; }
  .pd-pens { font-size: 11px; }
  .pd-win .pd-team, .pd-win .pd-score { font-weight: 700; fill: #065f46; }
  .pd-crest-frame { fill: none; stroke: #d1d5db; stroke-width: 1; }
  .pd-link { fill: none; stroke: #cbd5e1; stroke-width: 1.5; }
  @media (prefers-color-scheme: dark) {
    .pd-bg { fill: #0f172a; }
    .pd-title { fill: #f8fafc; }
    .pd-season { fill: #94a3b8; }
    .pd-header { fill: #cbd5e1; }
    .pd-meta { fill: #94a3b8; }
    .pd-box { fill: #1e293b; stroke: #334155; }
    .pd-divider { stroke: #334155; }
    .pd-team { fill: #e5e7eb; }
    .pd-score { fill: #e5e7eb; }
    .pd-win .pd-team, .pd-win .pd-score { fill: #34d399; }
    .pd-crest-frame { stroke: #334155; }
    .pd-link { stroke: #475569; }
  }</style>
<rect class="pd-bg" width="818" height="408"/>
<text class="pd-title" x="20" y="28">FA Cup</text>
<text class="pd-season" x="97" y="28">2025-26</text>
<text class="pd-header" x="91" y="68">Quarterfinals</text>
<text class="pd-header" x="727" y="68">Quarterfinals</text>
<text class="pd-header" x="303" y="216">Semifinals</text>
<text class="pd-header" x="515" y="216">Semifinals</text>
<text class="pd-header" x="409" y="78">Final</text>
<text class="pd-meta" x="20" y="226"><tspan x="20"><tspan class="pd-meta-id">QF1</tspan></tspan></text>
<rect class="pd-box" x="20" y="232" width="142" height="48" rx="3"/>
<line class="pd-divider" x1="20" y1="256" x2="162" y2="256"/>
<g class="pd-win">
<text class="pd-team" x="30" y="248">Manchester City</text>
<text class="pd-score" x="154" y="248">2</text>
</g>
<g class="">
<text class="pd-team" x="30" y="272">Newcastle</text>
<text class="pd-score" x="154" y="272">1</text>
</g>
<text class="pd-meta" x="20" y="330"><tspan x="20"><tspan class="pd-meta-id">QF2</tspan></tspan></text>
<rect class="pd-box" x="20" y="336" width="142" height="48" rx="3"/>
<line class="pd-divider" x1="20" y1="360" x2="162" y2="360"/>
<g class="">
<text class="pd-team" x="30" y="352">Chelsea</text>
<text class="pd-score" x="154" y="352">1 <tspan class="pd-pens" dy="-1.5">(3)</tspan></text>
</g>
<g class="pd-win">
<text class="pd-team" x="30" y="376">Arsenal</text>
<text class="pd-score" x="154" y="376">1 <tspan class="pd-pens" dy="-1.5">(4)</tspan></text>
</g>
<text class="pd-meta" x="656" y="226"><tspan x="656"><tspan class="pd-meta-id">QF3</tspan></tspan></text>
<rect class="pd-box" x="656" y="232" width="142" height="48" rx="3"/>
<line class="pd-divider" x1="656" y1="256" x2="798" y2="256"/>
<g class="pd-win">
<text class="pd-team" x="666" y="248">Liverpool</text>
<text class="pd-score" x="790" y="248">3</text>
</g>
<g class="">
<text class="pd-team" x="666" y="272">Aston Villa</text>
<text class="pd-score" x="790" y="272">0</text>
</g>
<text class="pd-meta" x="656" y="330"><tspan x="656"><tspan class="pd-meta-id">QF4</tspan></tspan></text>
<rect class="pd-box" x="656" y="336" width="142" height="48" rx="3"/>
<line class="pd-divider" x1="656" y1="360" x2="798" y2="360"/>
<g class="">
<text class="pd-team" x="666" y="352">Manchester United</text>
</g>
<g class="">
<text class="pd-team" x="666" y="376">Tottenham</text>
</g>
<text class="pd-meta" x="232" y="294"><tspan x="232"><tspan class="pd-meta-id">SF1</tspan></tspan></text>
<rect class="pd-box" x="232" y="232" width="142" height="48" rx="3"/>
<line class="pd-divider" x1="232" y1="256" x2="374" y2="256"/>
<g class="">
<text class="pd-team" x="242" y="248">TBD</text>
</g>
<g class="">
<text class="pd-team" x="242" y="272">TBD</text>
</g>
<text class="pd-meta" x="444" y="294"><tspan x="444"><tspan class="pd-meta-id">SF2</tspan></tspan></text>
<rect class="pd-box" x="444" y="232" width="142" height="48" rx="3"/>
<line class="pd-divider" x1="444" y1="256" x2="586" y2="256"/>
<g class="">
<text class="pd-team" x="454" y="248">TBD</text>
</g>
<g class="">
<text class="pd-team" x="454" y="272">TBD</text>
</g>
<rect class="pd-box" x="338" y="114" width="142" height="48" rx="3"/>
<line class="pd-divider" x1="338" y1="138" x2="480" y2="138"/>
<g class="">
<text class="pd-team" x="348" y="130">Winner SF1</text>
</g>
<g class="">
<text class="pd-team" x="348" y="154">Winner SF2</text>
</g>
</svg>