<svg xmlns="http://www.w3.org/2000/svg" viewBox="0 0 1010 408" width="1010" height="408" font-family="sans-serif">
<style>
  .pd-bg { fill: #ffffff; }
  .pd-title { font: 600 18px sans-serif; fill: #111827; }
  .pd-season { font: 400 13px sans-serif; fill: #6b7280; }
  .pd-header { font: 600 15px sans-serif; fill: #374151; text-anchor: middle; }
  .pd-meta { font: 400 11px sans-serif; fill: #6b7280; }
  .pd-meta-id { font-weight: 700; }
  .pd-box { fill: #ffffff; stroke: #d1d5db; stroke-width: 1; }
  .pd-divider { stroke: #e5e7eb; stroke-width: 1; }
  .pd-team { font: 400 13px sans-serif; fill: #1f2937; }
  .pd-score { font: 400 13px sans-serif; fill: #1f2937; text-anchor: end; }
  .pd-win .pd-team, .pd-win .pd-score { font-weight: 700; fill: #065f46; }
  .pd-crest-frame { fill: none; stroke: #d1d5db; stroke-width: 1; }
  .pd-link { fill: none; stroke: #cbd5e1; stroke-width: 1.5; }
  @media (prefers-color-scheme: dark) {
    .pd-bg { fill: #0f172a; }
    .pd-title { fill: #f8fafc; }
    .pd-season { fill: #94a3b8; }
    .pd-header { fill: #cbd5e1; }
    .pd-meta { fill: #94a3b8; }
    .pd-box { fill: #1e293b; stroke: #334155; }
    .pd-divider { stroke: #334155; }
    .pd-team { fill: #e5e7eb; }
    .pd-score { fill: #e5e7eb; }
    .pd-win .pd-team, .pd-win .pd-score { fill: #34d399; }
    .pd-crest-frame { stroke: #334155; }
    .pd-link { stroke: #475569; }
  }</style>
<rect class="pd-bg" width="1010" height="408"/>
<text class="pd-title" x="20" y="28">FA Cup</text>
<text class="pd-season" x="97" y="28">2025-26</text>
<text class="pd-header" x="115" y="68">Quarterfinals</text>
<text class="pd-header" x="895" y="68">Quarterfinals</text>
<text class="pd-header" x="375" y="216">Semifinals</text>
<text class="pd-header" x="635" y="216">Semifinals</text>
<text class="pd-header" x="505" y="78">Final</text>
<text class="pd-meta" x="20" y="226"><tspan class="pd-meta-id">QF1</tspan></text>
<rect class="pd-box" x="20" y="232" width="190" height="48" rx="3"/>
<line class="pd-divider" x1="20" y1="256" x2="210" y2="256"/>
<g class="pd-win">
<text class="pd-team" x="30" y="248">Manchester City</text>
<text class="pd-score" x="202" y="248">2</text>
</g>
<g class="">
<text class="pd-team" x="30" y="272">Newcastle</text>
<text class="pd-score" x="202" y="272">1</text>
</g>
<text class="pd-meta" x="20" y="330"><tspan class="pd-meta-id">QF2</tspan></text>
<rect class="pd-box" x="20" y="336" width="190" height="48" rx="3"/>
<line class="pd-divider" x1="20" y1="360" x2="210" y2="360"/>
<g class="">
<text class="pd-team" x="30" y="352">Chelsea</text>
<text class="pd-score" x="202" y="352">1 (3)</text>
</g>
<g class="pd-win">
<text class="pd-team" x="30" y="376">Arsenal</text>
<text class="pd-score" x="202" y="376">1 (4)</text>
</g>
<text class="pd-meta" x="990" y="226" text-anchor="end"><tspan class="pd-meta-id">QF3</tspan></text>
<rect class="pd-box" x="800" y="232" width="190" height="48" rx="3"/>
<line class="pd-divider" x1="800" y1="256" x2="990" y2="256"/>
<g class="pd-win">
<text class="pd-team" x="810" y="248">Liverpool</text>
<text class="pd-score" x="982" y="248">3</text>
</g>
<g class="">
<text class="pd-team" x="810" y="272">Aston Villa</text>
<text class="pd-score" x="982" y="272">0</text>
</g>
<text class="pd-meta" x="990" y="330" text-anchor="end"><tspan class="pd-meta-id">QF4</tspan></text>
<rect class="pd-box" x="800" y="336" width="190" height="48" rx="3"/>
<line class="pd-divider" x1="800" y1="360" x2="990" y2="360"/>
<g class="pd-win">
<text class="pd-team" x="810" y="352">Manchester United</text>
<text class="pd-score" x="982" y="352">2</text>
</g>
<g class="">
<text class="pd-team" x="810" y="376">Tottenham</text>
<text class="pd-score" x="982" y="376">1</text>
</g>
<text class="pd-meta" x="280" y="294"><tspan x="280"><tspan class="pd-meta-id">SF1</tspan></tspan></text>
<rect class="pd-box" x="280" y="232" width="190" height="48" rx="3"/>
<line class="pd-divider" x1="280" y1="256" x2="470" y2="256"/>
<g class="">
<text class="pd-team" x="290" y="248">Arsenal</text>
</g>
<g class="">
<text class="pd-team" x="290" y="272">Manchester United</text>
</g>
<text class="pd-meta" x="540" y="294"><tspan x="540"><tspan class="pd-meta-id">SF2</tspan></tspan></text>
<rect class="pd-box" x="540" y="232" width="190" height="48" rx="3"/>
<line class="pd-divider" x1="540" y1="256" x2="730" y2="256"/>
<g class="">
<text class="pd-team" x="550" y="248">Manchester City</text>
</g>
<g class="">
<text class="pd-team" x="550" y="272">Liverpool</text>
</g>
<rect class="pd-box" x="410" y="114" width="190" height="48" rx="3"/>
<line class="pd-divider" x1="410" y1="138" x2="600" y2="138"/>
<g class="">
<text class="pd-team" x="420" y="130">Winner SF1</text>
</g>
<g class="">
<text class="pd-team" x="420" y="154">Winner SF2</text>
</g>
</svg>