<svg xmlns="http://www.w3.org/2000/svg" viewBox="0 0 750 484" width="750" height="484" font-family="sans-serif">
<style>
  .pd-bg { fill: #ffffff; }
  .pd-title { font: 600 18px sans-serif; fill: #111827; }
  .pd-season { font: 400 13px sans-serif; fill: #6b7280; }
  .pd-header { font: 600 15px sans-serif; fill: #374151; text-anchor: middle; }
  .pd-meta { font: 400 11px sans-serif; fill: #6b7280; }
  .pd-meta-id { font-weight: 700; }
  .pd-box { fill: #ffffff; stroke: #d1d5db; stroke-width: 1; }
  .pd-divider { stroke: #e5e7eb; stroke-width: 1; }
  .pd-team { font: 400 13px sans-serif; fill: #1f2937; }
  .pd-score { font: 400 13px sans-serif; fill: #1f2937; text-anchor: end; }
  .pd-win .pd-team, .pd-win .pd-score { font-weight: 700; fill: #065f46; }
  .pd-crest-frame { fill: none; stroke: #d1d5db; stroke-width: 1; }
  .pd-link { fill: none; stroke: #cbd5e1; stroke-width: 1.5; }
  @media (prefers-color-scheme: dark) {
    .pd-bg { fill: #0f172a; }
    .pd-title { fill: #f8fafc; }
    .pd-season { fill: #94a3b8; }
    .pd-header { fill: #cbd5e1; }
    .pd-meta { fill: #94a3b8; }
    .pd-box { fill: #1e293b; stroke: #334155; }
    .pd-divider { stroke: #334155; }
    .pd-team { fill: #e5e7eb; }
    .pd-score { fill: #e5e7eb; }
    .pd-win .pd-team, .pd-win .pd-score { fill: #34d399; }
    .pd-crest-frame { stroke: #334155; }
    .pd-link { stroke: #475569; }
  }</style>
<rect class="pd-bg" width="750" height="484"/>
<text class="pd-title" x="20" y="28">FA Cup</text>
<text class="pd-season" x="97" y="28">2025-26</text>
<text class="pd-header" x="115" y="68">Quarterfinals</text>
<text class="pd-header" x="375" y="68">Semifinals</text>
<text class="pd-header" x="635" y="68">Final</text>
<path class="pd-link" d="M 470 124 L 505 124 L 505 164 L 540 164"/>
<path class="pd-link" d="M 470 228 L 505 228 L 505 188 L 540 188"/>
<text class="pd-meta" x="20" y="94"><tspan class="pd-meta-id">QF1</tspan></text>
<rect class="pd-box" x="20" y="100" width="190" height="48" rx="3"/>
<line class="pd-divider" x1="20" y1="124" x2="210" y2="124"/>
<g class="pd-win">
<text class="pd-team" x="30" y="116">Manchester City</text>
<text class="pd-score" x="202" y="116">2</text>
</g>
<g class="">
<text class="pd-team" x="30" y="140">Newcastle</text>
<text class="pd-score" x="202" y="140">1</text>
</g>
<text class="pd-meta" x="20" y="198"><tspan class="pd-meta-id">QF2</tspan></text>
<rect class="pd-box" x="20" y="204" width="190" height="48" rx="3"/>
<line class="pd-divider" x1="20" y1="228" x2="210" y2="228"/>
<g class="">
<text class="pd-team" x="30" y="220">Chelsea</text>
<text class="pd-score" x="202" y="220">1 (3)</text>
</g>
<g class="pd-win">
<text class="pd-team" x="30" y="244">Arsenal</text>
<text class="pd-score" x="202" y="244">1 (4)</text>
</g>
<text class="pd-meta" x="20" y="302"><tspan class="pd-meta-id">QF3</tspan></text>
<rect class="pd-box" x="20" y="308" width="190" height="48" rx="3"/>
<line class="pd-divider" x1="20" y1="332" x2="210" y2="332"/>
<g class="pd-win">
<text class="pd-team" x="30" y="324">Liverpool</text>
<text class="pd-score" x="202" y="324">3</text>
</g>
<g class="">
<text class="pd-team" x="30" y="348">Aston Villa</text>
<text class="pd-score" x="202" y="348">0</text>
</g>
<text class="pd-meta" x="20" y="406"><tspan class="pd-meta-id">QF4</tspan></text>
<rect class="pd-box" x="20" y="412" width="190" height="48" rx="3"/>
<line class="pd-divider" x1="20" y1="436" x2="210" y2="436"/>
<g class="pd-win">
<text class="pd-team" x="30" y="428">Manchester United</text>
<text class="pd-score" x="202" y="428">2</text>
</g>
<g class="">
<text class="pd-team" x="30" y="452">Tottenham</text>
<text class="pd-score" x="202" y="452">1</text>
</g>
<text class="pd-meta" x="280" y="94"><tspan class="pd-meta-id">SF1</tspan></text>
<rect class="pd-box" x="280" y="100" width="190" height="48" rx="3"/>
<line class="pd-divider" x1="280" y1="124" x2="470" y2="124"/>
<g class="">
<text class="pd-team" x="290" y="116">Arsenal</text>
</g>
<g class="">
<text class="pd-team" x="290" y="140">Manchester United</text>
</g>
<text class="pd-meta" x="280" y="266"><tspan class="pd-meta-id">SF2</tspan></text>
<rect class="pd-box" x="280" y="204" width="190" height="48" rx="3"/>
<line class="pd-divider" x1="280" y1="228" x2="470" y2="228"/>
<g class="">
<text class="pd-team" x="290" y="220">Manchester City</text>
</g>
<g class="">
<text class="pd-team" x="290" y="244">Liverpool</text>
</g>
<rect class="pd-box" x="540" y="152" width="190" height="48" rx="3"/>
<line class="pd-divider" x1="540" y1="176" x2="730" y2="176"/>
<g class="">
<text class="pd-team" x="550" y="168">Winner SF1</text>
</g>
<g class="">
<text class="pd-team" x="550" y="192">Winner SF2</text>
</g>
</svg>