<svg xmlns="http://www.w3.org/2000/svg" viewBox="0 0 782 518" width="782" height="518" font-family="sans-serif">
<style>
  .pd-bg { fill: #ffffff; }
  .pd-title { font: 600 18px sans-serif; fill: #111827; }
  .pd-season { font: 400 13px sans-serif; fill: #6b7280; }
  .pd-header { font: 600 15px sans-serif; fill: #374151; text-anchor: middle; }
  .pd-meta { font: 400 11px sans-serif; fill: #6b7280; }
  .pd-meta-id { font-weight: 700; }
  .pd-box { fill: #ffffff; stroke: #d1d5db; stroke-width: 1; }
  .pd-divider { stroke: #e5e7eb; stroke-width: 1; }
  .pd-team { font: 400 13px sans-serif; fill: #1f2937; }
  .pd-score { font: 400 13px sans-serif; fill: #1f2937; text-anchor: end; }
  .pd-win .pd-team, .pd-win .pd-score { font-weight: 700; fill: #065f46; }
  .pd-crest-frame { fill: none; stroke: #d1d5db; stroke-width: 1; }
  .pd-link { fill: none; stroke: #cbd5e1; stroke-width: 1.5; }
  @media (prefers-color-scheme: dark) {
    .pd-bg { fill: #0f172a; }
    .pd-title { fill: #f8fafc; }
    .pd-season { fill: #94a3b8; }
    .pd-header { fill: #cbd5e1; }
    .pd-meta { fill: #94a3b8; }
    .pd-box { fill: #1e293b; stroke: #334155; }
    .pd-divider { stroke: #334155; }
    .pd-team { fill: #e5e7eb; }
    .pd-score { fill: #e5e7eb; }
    .pd-win .pd-team, .pd-win .pd-score { fill: #34d399; }
    .pd-crest-frame { stroke: #334155; }
    .pd-link { stroke: #475569; }
  }</style>
<rect class="pd-bg" width="782" height="518"/>
<text class="pd-title" x="20" y="28">World Cup</text>
<text class="pd-season" x="128" y="28">2026</text>
<text class="pd-header" x="115" y="68">Quarterfinals</text>
<text class="pd-header" x="375" y="68">Semifinals</text>
<text class="pd-header" x="635" y="68">Final</text>
<path class="pd-link" d="M 210 124 L 245 124 L 245 164 L 280 164"/>
<path class="pd-link" d="M 210 228 L 245 228 L 245 188 L 280 188"/>
<path class="pd-link" d="M 210 332 L 245 332 L 245 372 L 280 372"/>
<path class="pd-link" d="M 210 436 L 245 436 L 245 396 L 280 396"/>
<path class="pd-link" d="M 470 176 L 505 176 L 505 268 L 540 268"/>
<path class="pd-link" d="M 470 384 L 505 384 L 505 292 L 540 292"/>
<text class="pd-meta" x="20" y="94"><tspan class="pd-meta-id">QF1</tspan> · Thursday 09 July, 19:00 Gillette Stadium</text>
<rect class="pd-box" x="20" y="100" width="190" height="48" rx="3"/>
<line class="pd-divider" x1="20" y1="124" x2="210" y2="124"/>
<g class="pd-win">
<text class="pd-team" x="30" y="116">France</text>
<text class="pd-score" x="202" y="116">3</text>
</g>
<g class="">
<text class="pd-team" x="30" y="140">Portugal</text>
<text class="pd-score" x="202" y="140">0</text>
</g>
<text class="pd-meta" x="20" y="266"><tspan class="pd-meta-id">QF2</tspan> · Friday 10 July, 23:00 SoFi Stadium</text>
<rect class="pd-box" x="20" y="204" width="190" height="48" rx="3"/>
<line class="pd-divider" x1="20" y1="228" x2="210" y2="228"/>
<g class="">
<text class="pd-team" x="30" y="220">Germany</text>
<text class="pd-score" x="202" y="220">1</text>
</g>
<g class="pd-win">
<text class="pd-team" x="30" y="244">Spain</text>
<text class="pd-score" x="202" y="244">2</text>
</g>
<text class="pd-meta" x="20" y="302"><tspan class="pd-meta-id">QF3</tspan> · Saturday 11 July, 19:00 Arrowhead Stadium</text>
<rect class="pd-box" x="20" y="308" width="190" height="48" rx="3"/>
<line class="pd-divider" x1="20" y1="332" x2="210" y2="332"/>
<g class="pd-win">
<text class="pd-team" x="30" y="324">Argentina</text>
<text class="pd-score" x="202" y="324">0 (5)</text>
</g>
<g class="">
<text class="pd-team" x="30" y="348">Netherlands</text>
<text class="pd-score" x="202" y="348">0 (4)</text>
</g>
<text class="pd-meta" x="20" y="474"><tspan class="pd-meta-id">QF4</tspan> · Saturday 11 July, 23:00 Hard Rock Stadium</text>
<rect class="pd-box" x="20" y="412" width="190" height="48" rx="3"/>
<line class="pd-divider" x1="20" y1="436" x2="210" y2="436"/>
<g class="">
<text class="pd-team" x="30" y="428">Brazil</text>
</g>
<g class="">
<text class="pd-team" x="30" y="452">England</text>
</g>
<text class="pd-meta" x="280" y="146"><tspan class="pd-meta-id">SF1</tspan> · Tuesday 14 July, 23:00 AT&amp;T Stadium</text>
<rect class="pd-box" x="280" y="152" width="190" height="48" rx="3"/>
<line class="pd-divider" x1="280" y1="176" x2="470" y2="176"/>
<g class="">
<text class="pd-team" x="290" y="168">France</text>
</g>
<g class="">
<text class="pd-team" x="290" y="192">Spain</text>
</g>
<text class="pd-meta" x="280" y="422"><tspan class="pd-meta-id">SF2</tspan> · Wednesday 15 July, 23:00 Mercedes-Benz Stadium</text>
<rect class="pd-box" x="280" y="360" width="190" height="48" rx="3"/>
<line class="pd-divider" x1="280" y1="384" x2="470" y2="384"/>
<g class="">
<text class="pd-team" x="290" y="376">Argentina</text>
</g>
<g class="">
<text class="pd-team" x="290" y="400">Winner QF4</text>
</g>
<text class="pd-meta" x="540" y="250">Sunday 19 July, 19:00 MetLife Stadium</text>
<rect class="pd-box" x="540" y="256" width="190" height="48" rx="3"/>
<line class="pd-divider" x1="540" y1="280" x2="730" y2="280"/>
<g class="">
<text class="pd-team" x="550" y="272">Winner SF1</text>
</g>
<g class="">
<text class="pd-team" x="550" y="296">Winner SF2</text>
</g>
</svg>