<svg xmlns="http://www.w3.org/2000/svg" viewBox="0 0 818 390" width="818" height="390" font-family="sans-serif">
<style>
  .pd-bg { fill: #ffffff; }
  .pd-title { font: 600 18px sans-serif; fill: #111827; }
  .pd-season { font: 400 13px sans-serif; fill: #6b7280; }
  .pd-header { font: 600 15px sans-serif; fill: #374151; text-anchor: middle; }
  .pd-meta { font: 400 11px sans-serif; fill: #6b7280; }
  .pd-meta-id { font-weight: 700; }
  .pd-box { fill: #ffffff; stroke: #d1d5db; stroke-width: 1; }
  .pd-divider { stroke: #e5e7eb; stroke-width: 1; }
  .pd-team { font: 400 13px sans-serif; fill: #1f2937; }
  .pd-score { font: 400 13px sans-serif; fill: #1f2937; text-anchor: end; }
  .pd-pens { font-size: 11px; }
  .pd-win .pd-team, .pd-win .pd-score { font-weight: 700; fill: #065f46; }
  .pd-crest-frame { fill: none; stroke: #d1d5db; stroke-width: 1; }
  .pd-link { fill: none; stroke: #cbd5e1; stroke-width: 1.5; }
  @media (prefers-color-scheme: dark) {
    .pd-bg { fill: #0f172a; }
    .pd-title { fill: #f8fafc; }
    .pd-season { fill: #94a3b8; }
    .pd-header { fill: #cbd5e1; }
    .pd-meta { fill: #94a3b8; }
    .pd-box { fill: #1e293b; stroke: #334155; }
    .pd-divider { stroke: #334155; }
    .pd-team { fill: #e5e7eb; }
    .pd-score { fill: #e5e7eb; }
    .pd-win .pd-team, .pd-win .pd-score { fill: #34d399; }
    .pd-crest-frame { stroke: #334155; }
    .pd-link { stroke: #475569; }
  }</style>
<rect class="pd-bg" width="818" height="390"/>
<text class="pd-title" x="20" y="28">World Cup</text>
<text class="pd-season" x="128" y="28">2026</text>
<text class="pd-header" x="91" y="68">Quarterfinals</text>
<text class="pd-header" x="727" y="68">Quarterfinals</text>
<text class="pd-header" x="303" y="216">Semifinals</text>
<text class="pd-header" x="515" y="216">Semifinals</text>
<text class="pd-header" x="409" y="78">Final</text>
<path class="pd-link" d="M 162 204 L 197 204 L 197 244 L 232 244"/>
<path class="pd-link" d="M 162 308 L 197 308 L 197 268 L 232 268"/>
<path class="pd-link" d="M 656 204 L 621 204 L 621 244 L 586 244"/>
<path class="pd-link" d="M 656 308 L 621 308 L 621 268 L 586 268"/>
<text class="pd-meta" x="20" y="174"><tspan class="pd-meta-id">QF1</tspan> · Thursday 09 July, 19:00 Gillette Stadium</text>
<rect class="pd-box" x="20" y="180" width="142" height="48" rx="3"/>
<line class="pd-divider" x1="20" y1="204" x2="162" y2="204"/>
<g class="pd-win">
<text class="pd-team" x="30" y="196">France</text>
<text class="pd-score" x="154" y="196">3</text>
</g>
<g class="">
<text class="pd-team" x="30" y="220">Portugal</text>
<text class="pd-score" x="154" y="220">0</text>
</g>
<text class="pd-meta" x="20" y="346"><tspan class="pd-meta-id">QF2</tspan> · Friday 10 July, 23:00 SoFi Stadium</text>
<rect class="pd-box" x="20" y="284" width="142" height="48" rx="3"/>
<line class="pd-divider" x1="20" y1="308" x2="162" y2="308"/>
<g class="">
<text class="pd-team" x="30" y="300">Germany</text>
<text class="pd-score" x="154" y="300">1</text>
</g>
<g class="pd-win">
<text class="pd-team" x="30" y="324">Spain</text>
<text class="pd-score" x="154" y="324">2</text>
</g>
<text class="pd-meta" x="798" y="174" text-anchor="end"><tspan class="pd-meta-id">QF3</tspan> · Saturday 11 July, 19:00 Arrowhead Stadium</text>
<rect class="pd-box" x="656" y="180" width="142" height="48" rx="3"/>
<line class="pd-divider" x1="656" y1="204" x2="798" y2="204"/>
<g class="pd-win">
<text class="pd-team" x="666" y="196">Argentina</text>
<text class="pd-score" x="790" y="196">0 <tspan class="pd-pens" dy="-1.5">(5)</tspan></text>
</g>
<g class="">
<text class="pd-team" x="666" y="220">Netherlands</text>
<text class="pd-score" x="790" y="220">0 <tspan class="pd-pens" dy="-1.5">(4)</tspan></text>
</g>
<text class="pd-meta" x="798" y="346" text-anchor="end"><tspan class="pd-meta-id">QF4</tspan> · Saturday 11 July, 23:00 Hard Rock Stadium</text>
<rect class="pd-box" x="656" y="284" width="142" height="48" rx="3"/>
<line class="pd-divider" x1="656" y1="308" x2="798" y2="308"/>
<g class="">
<text class="pd-team" x="666" y="300">Brazil</text>
</g>
<g class="">
<text class="pd-team" x="666" y="324">England</text>
</g>
<text class="pd-meta" x="232" y="294"><tspan x="232"><tspan class="pd-meta-id">SF1</tspan> · Tuesday 14 July,</tspan><tspan x="263" dy="13">23:00 AT&amp;T Stadium</tspan></text>
<rect class="pd-box" x="232" y="232" width="142" height="48" rx="3"/>
<line class="pd-divider" x1="232" y1="256" x2="374" y2="256"/>
<g class="">
<text class="pd-team" x="242" y="248">France</text>
</g>
<g class="">
<text class="pd-team" x="242" y="272">Spain</text>
</g>
<text class="pd-meta" x="444" y="294"><tspan x="444"><tspan class="pd-meta-id">SF2</tspan> · Wednesday 15 July,</tspan><tspan x="475" dy="13">23:00 Mercedes-Benz …</tspan></text>
<rect class="pd-box" x="444" y="232" width="142" height="48" rx="3"/>
<line class="pd-divider" x1="444" y1="256" x2="586" y2="256"/>
<g class="">
<text class="pd-team" x="454" y="248">Argentina</text>
</g>
<g class="">
<text class="pd-team" x="454" y="272">Winner QF4</text>
</g>
<text class="pd-meta" x="338" y="108">Sunday 19 July, 19:00 MetLife Stadium</text>
<rect class="pd-box" x="338" y="114" width="142" height="48" rx="3"/>
<line class="pd-divider" x1="338" y1="138" x2="480" y2="138"/>
<g class="">
<text class="pd-team" x="348" y="130">Winner SF1</text>
</g>
<g class="">
<text class="pd-team" x="348" y="154">Winner SF2</text>
</g>
</svg>