<svg xmlns="http://www.w3.org/2000/svg" viewBox="0 0 1156 373" width="1156" height="373" font-family="sans-serif">
<style>
  .pd-bg { fill: #ffffff; }
  .pd-title { font: 600 18px sans-serif; fill: #111827; }
  .pd-season { font: 400 13px sans-serif; fill: #6b7280; }
  .pd-header { font: 600 15px sans-serif; fill: #374151; text-anchor: middle; }
  .pd-meta { font: 400 11px sans-serif; fill: #6b7280; }
  .pd-meta-id { font-weight: 700; }
  .pd-box { fill: #ffffff; stroke: #d1d5db; stroke-width: 1; }
  .pd-divider { stroke: #e5e7eb; stroke-width: 1; }
  .pd-team { font: 400 13px sans-serif; fill: #1f2937; }
  .pd-score { font: 400 13px sans-serif; fill: #1f2937; text-anchor: end; }
  .pd-pens { font-size: 11px; }
  .pd-win .pd-team, .pd-win .pd-score { font-weight: 700; fill: #065f46; }
  .pd-crest-frame { fill: none; stroke: #d1d5db; stroke-width: 1; }
  .pd-link { fill: none; stroke: #cbd5e1; stroke-width: 1.5; }
  @media (prefers-color-scheme: dark) {
    .pd-bg { fill: #0f172a; }
    .pd-title { fill: #f8fafc; }
    .pd-season { fill: #94a3b8; }
    .pd-header { fill: #cbd5e1; }
    .pd-meta { fill: #94a3b8; }
    .pd-box { fill: #1e293b; stroke: #334155; }
    .pd-divider { stroke: #334155; }
    .pd-team { fill: #e5e7eb; }
    .pd-score { fill: #e5e7eb; }
    .pd-win .pd-team, .pd-win .pd-score { fill: #34d399; }
    .pd-crest-frame { stroke: #334155; }
    .pd-link { stroke: #475569; }
  }</style>
<rect class="pd-bg" width="1156" height="373"/>
<text class="pd-title" x="20" y="28">Copa Libertadores</text>
<text class="pd-season" x="212" y="28">2026</text>
<text class="pd-header" x="140" y="68">Cuartos de final</text>
<text class="pd-header" x="1016" y="68">Cuartos de final</text>
<text class="pd-header" x="432" y="216">Semifinales</text>
<text class="pd-header" x="724" y="216">Semifinales</text>
<text class="pd-header" x="578" y="64">Final</text>
<path class="pd-link" d="M 260 221 L 286 221 L 286 244 L 312 244"/>
<path class="pd-link" d="M 260 291 L 286 291 L 286 268 L 312 268"/>
<path class="pd-link" d="M 896 221 L 870 221 L 870 244 L 844 244"/>
<path class="pd-link" d="M 896 291 L 870 291 L 870 268 L 844 268"/>
<text class="pd-meta" x="20" y="178"><tspan x="20"><tspan class="pd-meta-id">QF1</tspan> · 11/08 20:00 Maracanã / 18/08 20:00 La</tspan><tspan x="50" dy="13">Bombonera</tspan></text>
<rect class="pd-box" x="20" y="197" width="240" height="48" rx="3"/>
<line class="pd-divider" x1="20" y1="221" x2="260" y2="221"/>
<g class="pd-win">
<text class="pd-team" x="30" y="213">Flamengo</text>
<text class="pd-score" x="252" y="213">2<tspan dx="6">0</tspan></text>
</g>
<g class="">
<text class="pd-team" x="30" y="237">Boca Juniors</text>
<text class="pd-score" x="252" y="237">1<tspan dx="6">0</tspan></text>
</g>
<text class="pd-meta" x="20" y="329"><tspan x="20"><tspan class="pd-meta-id">QF2</tspan> · 12/08 20:30 Estadio Monumental / 19/08</tspan><tspan x="50" dy="13">20:30 Allianz Parque</tspan></text>
<rect class="pd-box" x="20" y="267" width="240" height="48" rx="3"/>
<line class="pd-divider" x1="20" y1="291" x2="260" y2="291"/>
<g class="pd-win">
<text class="pd-team" x="30" y="283">River Plate</text>
<text class="pd-score" x="252" y="283">1<tspan dx="6">0</tspan> <tspan class="pd-pens" dy="-1.5">(4)</tspan></text>
</g>
<g class="">
<text class="pd-team" x="30" y="307">Palmeiras</text>
<text class="pd-score" x="252" y="307">1<tspan dx="6">0</tspan> <tspan class="pd-pens" dy="-1.5">(2)</tspan></text>
</g>
<text class="pd-meta" x="896" y="178"><tspan x="896"><tspan class="pd-meta-id">QF3</tspan> · 13/08 20:00 Parque Viera / 20/08 20:00</tspan><tspan x="926" dy="13">Arena MRV</tspan></text>
<rect class="pd-box" x="896" y="197" width="240" height="48" rx="3"/>
<line class="pd-divider" x1="896" y1="221" x2="1136" y2="221"/>
<g class="pd-win">
<text class="pd-team" x="906" y="213">Montevideo City Torque</text>
<text class="pd-score" x="1128" y="213">1<tspan dx="6">1</tspan></text>
</g>
<g class="">
<text class="pd-team" x="906" y="237">Atletico Mineiro</text>
<text class="pd-score" x="1128" y="237">0<tspan dx="6">1</tspan></text>
</g>
<text class="pd-meta" x="896" y="329"><tspan x="896"><tspan class="pd-meta-id">QF4</tspan> · 12/08 18:00 Neo Química Arena / 19/08</tspan><tspan x="926" dy="13">18:00 Beira-Rio</tspan></text>
<rect class="pd-box" x="896" y="267" width="240" height="48" rx="3"/>
<line class="pd-divider" x1="896" y1="291" x2="1136" y2="291"/>
<g class="pd-win">
<text class="pd-team" x="906" y="283">Corinthians</text>
<text class="pd-score" x="1128" y="283">3<tspan dx="6">1</tspan></text>
</g>
<g class="">
<text class="pd-team" x="906" y="307">Internacional</text>
<text class="pd-score" x="1128" y="307">0<tspan dx="6">1</tspan></text>
</g>
<text class="pd-meta" x="312" y="294"><tspan x="312"><tspan class="pd-meta-id">SF1</tspan> · 23/09 20:30 Maracanã / 30/09 20:30 Estadio</tspan><tspan x="342" dy="13">Monumental</tspan></text>
<rect class="pd-box" x="312" y="232" width="240" height="48" rx="3"/>
<line class="pd-divider" x1="312" y1="256" x2="552" y2="256"/>
<g class="pd-win">
<text class="pd-team" x="322" y="248">Flamengo</text>
<text class="pd-score" x="544" y="248">0<tspan dx="6">2</tspan></text>
</g>
<g class="">
<text class="pd-team" x="322" y="272">River Plate</text>
<text class="pd-score" x="544" y="272">0<tspan dx="6">1</tspan></text>
</g>
<text class="pd-meta" x="604" y="294"><tspan x="604"><tspan class="pd-meta-id">SF2</tspan> · 24/09 20:30 Parque Viera / 01/10 20:30 Neo</tspan><tspan x="634" dy="13">Química Arena</tspan></text>
<rect class="pd-box" x="604" y="232" width="240" height="48" rx="3"/>
<line class="pd-divider" x1="604" y1="256" x2="844" y2="256"/>
<g class="pd-win">
<text class="pd-team" x="614" y="248">Montevideo City Torque</text>
<text class="pd-score" x="836" y="248">1<tspan dx="6">2</tspan></text>
</g>
<g class="">
<text class="pd-team" x="614" y="272">Corinthians</text>
<text class="pd-score" x="836" y="272">1<tspan dx="6">0</tspan></text>
</g>
<text class="pd-meta" x="458" y="108"><tspan x="458">21/11 17:00 Estadio Centenario</tspan></text>
<rect class="pd-box" x="458" y="114" width="240" height="48" rx="3"/>
<line class="pd-divider" x1="458" y1="138" x2="698" y2="138"/>
<g class="pd-win">
<text class="pd-team" x="468" y="130">Flamengo</text>
<text class="pd-score" x="690" y="130">2</text>
</g>
<g class="">
<text class="pd-team" x="468" y="154">Montevideo City Torque</text>
<text class="pd-score" x="690" y="154">1</text>
</g>
</svg>