<svg xmlns="http://www.w3.org/2000/svg" viewBox="0 0 1210 390" width="1210" height="390" font-family="sans-serif">
<style>
  .pd-bg { fill: #ffffff; }
  .pd-title { font: 600 18px sans-serif; fill: #111827; }
  .pd-season { font: 400 13px sans-serif; fill: #6b7280; }
  .pd-header { font: 600 15px sans-serif; fill: #374151; text-anchor: middle; }
  .pd-meta { font: 400 11px sans-serif; fill: #6b7280; }
  .pd-meta-id { font-weight: 700; }
  .pd-box { fill: #ffffff; stroke: #d1d5db; stroke-width: 1; }
  .pd-divider { stroke: #e5e7eb; stroke-width: 1; }
  .pd-team { font: 400 13px sans-serif; fill: #1f2937; }
  .pd-score { font: 400 13px sans-serif; fill: #1f2937; text-anchor: end; }
  .pd-pens { font-size: 11px; }
  .pd-win .pd-team, .pd-win .pd-score { font-weight: 700; fill: #065f46; }
  .pd-crest-frame { fill: none; stroke: #d1d5db; stroke-width: 1; }
  .pd-link { fill: none; stroke: #cbd5e1; stroke-width: 1.5; }
  @media (prefers-color-scheme: dark) {
    .pd-bg { fill: #0f172a; }
    .pd-title { fill: #f8fafc; }
    .pd-season { fill: #94a3b8; }
    .pd-header { fill: #cbd5e1; }
    .pd-meta { fill: #94a3b8; }
    .pd-box { fill: #1e293b; stroke: #334155; }
    .pd-divider { stroke: #334155; }
    .pd-team { fill: #e5e7eb; }
    .pd-score { fill: #e5e7eb; }
    .pd-win .pd-team, .pd-win .pd-score { fill: #34d399; }
    .pd-crest-frame { stroke: #334155; }
    .pd-link { stroke: #475569; }
  }</style>
<rect class="pd-bg" width="1210" height="390"/>
<text class="pd-title" x="20" y="28">Copa Libertadores</text>
<text class="pd-season" x="212" y="28">2026</text>
<text class="pd-header" x="140" y="68">Cuartos de final</text>
<text class="pd-header" x="1070" y="68">Cuartos de final</text>
<text class="pd-header" x="450" y="216">Semifinales</text>
<text class="pd-header" x="760" y="216">Semifinales</text>
<text class="pd-header" x="605" y="78">Final</text>
<path class="pd-link" d="M 260 204 L 295 204 L 295 244 L 330 244"/>
<path class="pd-link" d="M 260 308 L 295 308 L 295 268 L 330 268"/>
<path class="pd-link" d="M 950 204 L 915 204 L 915 244 L 880 244"/>
<path class="pd-link" d="M 950 308 L 915 308 L 915 268 L 880 268"/>
<text class="pd-meta" x="20" y="161"><tspan x="20"><tspan class="pd-meta-id">QF1</tspan> · 11/08 20:00 Maracanã / 18/08 20:00 La</tspan><tspan x="50" dy="13">Bombonera</tspan></text>
<rect class="pd-box" x="20" y="180" width="240" height="48" rx="3"/>
<line class="pd-divider" x1="20" y1="204" x2="260" y2="204"/>
<g class="pd-win">
<text class="pd-team" x="30" y="196">Flamengo</text>
<text class="pd-score" x="252" y="196">2<tspan dx="6">0</tspan></text>
</g>
<g class="">
<text class="pd-team" x="30" y="220">Boca Juniors</text>
<text class="pd-score" x="252" y="220">1<tspan dx="6">0</tspan></text>
</g>
<text class="pd-meta" x="20" y="346"><tspan x="20"><tspan class="pd-meta-id">QF2</tspan> · 12/08 20:30 Estadio Monumental / 19/08</tspan><tspan x="50" dy="13">20:30 Allianz Parque</tspan></text>
<rect class="pd-box" x="20" y="284" width="240" height="48" rx="3"/>
<line class="pd-divider" x1="20" y1="308" x2="260" y2="308"/>
<g class="pd-win">
<text class="pd-team" x="30" y="300">River Plate</text>
<text class="pd-score" x="252" y="300">1<tspan dx="6">0</tspan> <tspan class="pd-pens" dy="-1.5">(4)</tspan></text>
</g>
<g class="">
<text class="pd-team" x="30" y="324">Palmeiras</text>
<text class="pd-score" x="252" y="324">1<tspan dx="6">0</tspan> <tspan class="pd-pens" dy="-1.5">(2)</tspan></text>
</g>
<text class="pd-meta" x="950" y="161"><tspan x="950"><tspan class="pd-meta-id">QF3</tspan> · 13/08 20:00 Parque Viera / 20/08 20:00</tspan><tspan x="980" dy="13">Arena MRV</tspan></text>
<rect class="pd-box" x="950" y="180" width="240" height="48" rx="3"/>
<line class="pd-divider" x1="950" y1="204" x2="1190" y2="204"/>
<g class="pd-win">
<text class="pd-team" x="960" y="196">Montevideo City Torque</text>
<text class="pd-score" x="1182" y="196">1<tspan dx="6">1</tspan></text>
</g>
<g class="">
<text class="pd-team" x="960" y="220">Atletico Mineiro</text>
<text class="pd-score" x="1182" y="220">0<tspan dx="6">1</tspan></text>
</g>
<text class="pd-meta" x="950" y="346"><tspan x="950"><tspan class="pd-meta-id">QF4</tspan> · 12/08 18:00 Neo Química Arena / 19/08</tspan><tspan x="980" dy="13">18:00 Beira-Rio</tspan></text>
<rect class="pd-box" x="950" y="284" width="240" height="48" rx="3"/>
<line class="pd-divider" x1="950" y1="308" x2="1190" y2="308"/>
<g class="pd-win">
<text class="pd-team" x="960" y="300">Corinthians</text>
<text class="pd-score" x="1182" y="300">3<tspan dx="6">1</tspan></text>
</g>
<g class="">
<text class="pd-team" x="960" y="324">Internacional</text>
<text class="pd-score" x="1182" y="324">0<tspan dx="6">1</tspan></text>
</g>
<text class="pd-meta" x="330" y="294"><tspan x="330"><tspan class="pd-meta-id">SF1</tspan> · 23/09 20:30 Maracanã / 30/09 20:30 Estadio</tspan><tspan x="360" dy="13">Monumental</tspan></text>
<rect class="pd-box" x="330" y="232" width="240" height="48" rx="3"/>
<line class="pd-divider" x1="330" y1="256" x2="570" y2="256"/>
<g class="pd-win">
<text class="pd-team" x="340" y="248">Flamengo</text>
<text class="pd-score" x="562" y="248">0<tspan dx="6">2</tspan></text>
</g>
<g class="">
<text class="pd-team" x="340" y="272">River Plate</text>
<text class="pd-score" x="562" y="272">0<tspan dx="6">1</tspan></text>
</g>
<text class="pd-meta" x="640" y="294"><tspan x="640"><tspan class="pd-meta-id">SF2</tspan> · 24/09 20:30 Parque Viera / 01/10 20:30 Neo</tspan><tspan x="670" dy="13">Química Arena</tspan></text>
<rect class="pd-box" x="640" y="232" width="240" height="48" rx="3"/>
<line class="pd-divider" x1="640" y1="256" x2="880" y2="256"/>
<g class="pd-win">
<text class="pd-team" x="650" y="248">Montevideo City Torque</text>
<text class="pd-score" x="872" y="248">1<tspan dx="6">2</tspan></text>
</g>
<g class="">
<text class="pd-team" x="650" y="272">Corinthians</text>
<text class="pd-score" x="872" y="272">1<tspan dx="6">0</tspan></text>
</g>
<text class="pd-meta" x="485" y="108"><tspan x="485">21/11 17:00 Estadio Centenario</tspan></text>
<rect class="pd-box" x="485" y="114" width="240" height="48" rx="3"/>
<line class="pd-divider" x1="485" y1="138" x2="725" y2="138"/>
<g class="pd-win">
<text class="pd-team" x="495" y="130">Flamengo</text>
<text class="pd-score" x="717" y="130">2</text>
</g>
<g class="">
<text class="pd-team" x="495" y="154">Montevideo City Torque</text>
<text class="pd-score" x="717" y="154">1</text>
</g>
</svg>