<svg xmlns="http://www.w3.org/2000/svg" viewBox="0 0 546 442" width="546" height="442" font-family="sans-serif">
<style>
  .pd-bg { fill: #ffffff; }
  .pd-title { font: 600 18px sans-serif; fill: #111827; }
  .pd-season { font: 400 13px sans-serif; fill: #6b7280; }
  .pd-header { font: 600 15px sans-serif; fill: #374151; text-anchor: middle; }
  .pd-meta { font: 400 11px sans-serif; fill: #6b7280; }
  .pd-meta-id { font-weight: 700; }
  .pd-box { fill: #ffffff; stroke: #d1d5db; stroke-width: 1; }
  .pd-divider { stroke: #e5e7eb; stroke-width: 1; }
  .pd-team { font: 400 13px sans-serif; fill: #1f2937; }
  .pd-score { font: 400 13px sans-serif; fill: #1f2937; text-anchor: end; }
  .pd-win .pd-team, .pd-win .pd-score { font-weight: 700; fill: #065f46; }
  .pd-crest-frame { fill: none; stroke: #d1d5db; stroke-width: 1; }
  .pd-link { fill: none; stroke: #cbd5e1; stroke-width: 1.5; }
  @media (prefers-color-scheme: dark) {
    .pd-bg { fill: #0f172a; }
    .pd-title { fill: #f8fafc; }
    .pd-season { fill: #94a3b8; }
    .pd-header { fill: #cbd5e1; }
    .pd-meta { fill: #94a3b8; }
    .pd-box { fill: #1e293b; stroke: #334155; }
    .pd-divider { stroke: #334155; }
    .pd-team { fill: #e5e7eb; }
    .pd-score { fill: #e5e7eb; }
    .pd-win .pd-team, .pd-win .pd-score { fill: #34d399; }
    .pd-crest-frame { stroke: #334155; }
    .pd-link { stroke: #475569; }
  }</style>
<rect class="pd-bg" width="546" height="442"/>
<text class="pd-title" x="20" y="28">World Cup</text>
<text class="pd-season" x="128" y="28">2026</text>
<text class="pd-header" x="115" y="68">Semifinals</text>
<text class="pd-header" x="375" y="68">Final</text>
<text class="pd-header" x="375" y="338">Third place</text>
<path class="pd-link" d="M 210 124 L 245 124 L 245 164 L 280 164"/>
<path class="pd-link" d="M 210 228 L 245 228 L 245 188 L 280 188"/>
<text class="pd-meta" x="20" y="94"><tspan class="pd-meta-id">SF1</tspan> · Tuesday 14 July, 23:00 AT&amp;T Stadium</text>
<rect class="pd-box" x="20" y="100" width="190" height="48" rx="3"/>
<line class="pd-divider" x1="20" y1="124" x2="210" y2="124"/>
<g class="">
<text class="pd-team" x="30" y="116">France</text>
</g>
<g class="">
<text class="pd-team" x="30" y="140">Spain</text>
</g>
<text class="pd-meta" x="20" y="266"><tspan class="pd-meta-id">SF2</tspan> · Wednesday 15 July, 23:00 Mercedes-Benz Stadium</text>
<rect class="pd-box" x="20" y="204" width="190" height="48" rx="3"/>
<line class="pd-divider" x1="20" y1="228" x2="210" y2="228"/>
<g class="">
<text class="pd-team" x="30" y="220">Argentina</text>
</g>
<g class="">
<text class="pd-team" x="30" y="244">Brazil</text>
</g>
<text class="pd-meta" x="280" y="146">Sunday 19 July, 19:00 MetLife Stadium</text>
<rect class="pd-box" x="280" y="152" width="190" height="48" rx="3"/>
<line class="pd-divider" x1="280" y1="176" x2="470" y2="176"/>
<g class="">
<text class="pd-team" x="290" y="168">Winner SF1</text>
</g>
<g class="">
<text class="pd-team" x="290" y="192">Winner SF2</text>
</g>
<text class="pd-meta" x="280" y="364">Saturday 18 July, 19:00 Hard Rock Stadium</text>
<rect class="pd-box" x="280" y="370" width="190" height="48" rx="3"/>
<line class="pd-divider" x1="280" y1="394" x2="470" y2="394"/>
<g class="">
<text class="pd-team" x="290" y="386">Loser SF1</text>
</g>
<g class="">
<text class="pd-team" x="290" y="410">Loser SF2</text>
</g>
</svg>