<svg xmlns="http://www.w3.org/2000/svg" viewBox="0 0 1242 498" width="1242" height="498" font-family="sans-serif">
<style>
  .pd-bg { fill: #ffffff; }
  .pd-title { font: 600 18px sans-serif; fill: #111827; }
  .pd-season { font: 400 13px sans-serif; fill: #6b7280; }
  .pd-header { font: 600 15px sans-serif; fill: #374151; text-anchor: middle; }
  .pd-meta { font: 400 11px sans-serif; fill: #6b7280; }
  .pd-meta-id { font-weight: 700; }
  .pd-box { fill: #ffffff; stroke: #d1d5db; stroke-width: 1; }
  .pd-divider { stroke: #e5e7eb; stroke-width: 1; }
  .pd-team { font: 400 13px sans-serif; fill: #1f2937; }
  .pd-score { font: 400 13px sans-serif; fill: #1f2937; text-anchor: end; }
  .pd-pens { font-size: 11px; }
  .pd-win .pd-team, .pd-win .pd-score { font-weight: 700; fill: #065f46; }
  .pd-crest-frame { fill: none; stroke: #d1d5db; stroke-width: 1; }
  .pd-link { fill: none; stroke: #cbd5e1; stroke-width: 1.5; }
  @media (prefers-color-scheme: dark) {
    .pd-bg { fill: #0f172a; }
    .pd-title { fill: #f8fafc; }
    .pd-season { fill: #94a3b8; }
    .pd-header { fill: #cbd5e1; }
    .pd-meta { fill: #94a3b8; }
    .pd-box { fill: #1e293b; stroke: #334155; }
    .pd-divider { stroke: #334155; }
    .pd-team { fill: #e5e7eb; }
    .pd-score { fill: #e5e7eb; }
    .pd-win .pd-team, .pd-win .pd-score { fill: #34d399; }
    .pd-crest-frame { stroke: #334155; }
    .pd-link { stroke: #475569; }
  }</style>
<rect class="pd-bg" width="1242" height="498"/>
<text class="pd-title" x="20" y="28">World Cup</text>
<text class="pd-season" x="128" y="28">Qatar 2022</text>
<text class="pd-header" x="91" y="68">Round of 16</text>
<text class="pd-header" x="1151" y="68">Round of 16</text>
<text class="pd-header" x="303" y="68">Quarterfinals</text>
<text class="pd-header" x="939" y="68">Quarterfinals</text>
<text class="pd-header" x="515" y="237">Semifinals</text>
<text class="pd-header" x="727" y="237">Semifinals</text>
<text class="pd-header" x="621" y="99">Final</text>
<text class="pd-header" x="621" y="387">Third place</text>
<path class="pd-link" d="M 162 138 L 197 138 L 197 161 L 232 161"/>
<path class="pd-link" d="M 162 208 L 197 208 L 197 185 L 232 185"/>
<path class="pd-link" d="M 162 346 L 197 346 L 197 369 L 232 369"/>
<path class="pd-link" d="M 162 416 L 197 416 L 197 393 L 232 393"/>
<path class="pd-link" d="M 1080 138 L 1045 138 L 1045 161 L 1010 161"/>
<path class="pd-link" d="M 1080 208 L 1045 208 L 1045 185 L 1010 185"/>
<path class="pd-link" d="M 1080 346 L 1045 346 L 1045 369 L 1010 369"/>
<path class="pd-link" d="M 1080 416 L 1045 416 L 1045 393 L 1010 393"/>
<path class="pd-link" d="M 374 173 L 409 173 L 409 265 L 444 265"/>
<path class="pd-link" d="M 374 381 L 409 381 L 409 289 L 444 289"/>
<path class="pd-link" d="M 868 173 L 833 173 L 833 265 L 798 265"/>
<path class="pd-link" d="M 868 381 L 833 381 L 833 289 L 798 289"/>
<text class="pd-meta" x="20" y="95"><tspan x="20"><tspan class="pd-meta-id">R16-1</tspan> · Saturday 03 December</tspan><tspan x="60" dy="13">Khalifa Internation…</tspan></text>
<rect class="pd-box" x="20" y="114" width="142" height="48" rx="3"/>
<line class="pd-divider" x1="20" y1="138" x2="162" y2="138"/>
<g class="pd-win">
<text class="pd-team" x="30" y="130">Netherlands</text>
<text class="pd-score" x="154" y="130">3</text>
</g>
<g class="">
<text class="pd-team" x="30" y="154">USA</text>
<text class="pd-score" x="154" y="154">1</text>
</g>
<text class="pd-meta" x="20" y="246"><tspan x="20"><tspan class="pd-meta-id">R16-2</tspan> · Saturday 03 December</tspan><tspan x="60" dy="13">Ahmad bin Ali Stadi…</tspan></text>
<rect class="pd-box" x="20" y="184" width="142" height="48" rx="3"/>
<line class="pd-divider" x1="20" y1="208" x2="162" y2="208"/>
<g class="pd-win">
<text class="pd-team" x="30" y="200">Argentina</text>
<text class="pd-score" x="154" y="200">2</text>
</g>
<g class="">
<text class="pd-team" x="30" y="224">Australia</text>
<text class="pd-score" x="154" y="224">1</text>
</g>
<text class="pd-meta" x="20" y="303"><tspan x="20"><tspan class="pd-meta-id">R16-3</tspan> · Monday 05 December</tspan><tspan x="60" dy="13">Al Janoub Stadium</tspan></text>
<rect class="pd-box" x="20" y="322" width="142" height="48" rx="3"/>
<line class="pd-divider" x1="20" y1="346" x2="162" y2="346"/>
<g class="">
<text class="pd-team" x="30" y="338">Japan</text>
<text class="pd-score" x="154" y="338">1 <tspan class="pd-pens" dy="-1.5">(1)</tspan></text>
</g>
<g class="pd-win">
<text class="pd-team" x="30" y="362">Croatia</text>
<text class="pd-score" x="154" y="362">1 <tspan class="pd-pens" dy="-1.5">(3)</tspan></text>
</g>
<text class="pd-meta" x="20" y="454"><tspan x="20"><tspan class="pd-meta-id">R16-4</tspan> · Monday 05 December</tspan><tspan x="60" dy="13">Stadium 974</tspan></text>
<rect class="pd-box" x="20" y="392" width="142" height="48" rx="3"/>
<line class="pd-divider" x1="20" y1="416" x2="162" y2="416"/>
<g class="pd-win">
<text class="pd-team" x="30" y="408">Brazil</text>
<text class="pd-score" x="154" y="408">4</text>
</g>
<g class="">
<text class="pd-team" x="30" y="432">South Korea</text>
<text class="pd-score" x="154" y="432">1</text>
</g>
<text class="pd-meta" x="1080" y="95"><tspan x="1080"><tspan class="pd-meta-id">R16-5</tspan> · Tuesday 06 December</tspan><tspan x="1120" dy="13">Education City Stad…</tspan></text>
<rect class="pd-box" x="1080" y="114" width="142" height="48" rx="3"/>
<line class="pd-divider" x1="1080" y1="138" x2="1222" y2="138"/>
<g class="pd-win">
<text class="pd-team" x="1090" y="130">Morocco</text>
<text class="pd-score" x="1214" y="130">0 <tspan class="pd-pens" dy="-1.5">(3)</tspan></text>
</g>
<g class="">
<text class="pd-team" x="1090" y="154">Spain</text>
<text class="pd-score" x="1214" y="154">0 <tspan class="pd-pens" dy="-1.5">(0)</tspan></text>
</g>
<text class="pd-meta" x="1080" y="246"><tspan x="1080"><tspan class="pd-meta-id">R16-6</tspan> · Tuesday 06 December</tspan><tspan x="1120" dy="13">Lusail Stadium</tspan></text>
<rect class="pd-box" x="1080" y="184" width="142" height="48" rx="3"/>
<line class="pd-divider" x1="1080" y1="208" x2="1222" y2="208"/>
<g class="pd-win">
<text class="pd-team" x="1090" y="200">Portugal</text>
<text class="pd-score" x="1214" y="200">6</text>
</g>
<g class="">
<text class="pd-team" x="1090" y="224">Switzerland</text>
<text class="pd-score" x="1214" y="224">1</text>
</g>
<text class="pd-meta" x="1080" y="303"><tspan x="1080"><tspan class="pd-meta-id">R16-7</tspan> · Sunday 04 December</tspan><tspan x="1120" dy="13">Al Bayt Stadium</tspan></text>
<rect class="pd-box" x="1080" y="322" width="142" height="48" rx="3"/>
<line class="pd-divider" x1="1080" y1="346" x2="1222" y2="346"/>
<g class="pd-win">
<text class="pd-team" x="1090" y="338">England</text>
<text class="pd-score" x="1214" y="338">3</text>
</g>
<g class="">
<text class="pd-team" x="1090" y="362">Senegal</text>
<text class="pd-score" x="1214" y="362">0</text>
</g>
<text class="pd-meta" x="1080" y="454"><tspan x="1080"><tspan class="pd-meta-id">R16-8</tspan> · Sunday 04 December</tspan><tspan x="1120" dy="13">Al Thumama Stadium</tspan></text>
<rect class="pd-box" x="1080" y="392" width="142" height="48" rx="3"/>
<line class="pd-divider" x1="1080" y1="416" x2="1222" y2="416"/>
<g class="pd-win">
<text class="pd-team" x="1090" y="408">France</text>
<text class="pd-score" x="1214" y="408">3</text>
</g>
<g class="">
<text class="pd-team" x="1090" y="432">Poland</text>
<text class="pd-score" x="1214" y="432">1</text>
</g>
<text class="pd-meta" x="232" y="130"><tspan x="232"><tspan class="pd-meta-id">QF1</tspan> · Friday 09 December</tspan><tspan x="262" dy="13">Lusail Stadium</tspan></text>
<rect class="pd-box" x="232" y="149" width="142" height="48" rx="3"/>
<line class="pd-divider" x1="232" y1="173" x2="374" y2="173"/>
<g class="">
<text class="pd-team" x="242" y="165">Netherlands</text>
<text class="pd-score" x="366" y="165">2 <tspan class="pd-pens" dy="-1.5">(3)</tspan></text>
</g>
<g class="pd-win">
<text class="pd-team" x="242" y="189">Argentina</text>
<text class="pd-score" x="366" y="189">2 <tspan class="pd-pens" dy="-1.5">(4)</tspan></text>
</g>
<text class="pd-meta" x="232" y="419"><tspan x="232"><tspan class="pd-meta-id">QF2</tspan> · Friday 09 December</tspan><tspan x="262" dy="13">Education City Stadium</tspan></text>
<rect class="pd-box" x="232" y="357" width="142" height="48" rx="3"/>
<line class="pd-divider" x1="232" y1="381" x2="374" y2="381"/>
<g class="pd-win">
<text class="pd-team" x="242" y="373">Croatia</text>
<text class="pd-score" x="366" y="373">1 <tspan class="pd-pens" dy="-1.5">(4)</tspan></text>
</g>
<g class="">
<text class="pd-team" x="242" y="397">Brazil</text>
<text class="pd-score" x="366" y="397">1 <tspan class="pd-pens" dy="-1.5">(2)</tspan></text>
</g>
<text class="pd-meta" x="868" y="130"><tspan x="868"><tspan class="pd-meta-id">QF3</tspan> · Saturday 10 December</tspan><tspan x="898" dy="13">Al Thumama Stadium</tspan></text>
<rect class="pd-box" x="868" y="149" width="142" height="48" rx="3"/>
<line class="pd-divider" x1="868" y1="173" x2="1010" y2="173"/>
<g class="pd-win">
<text class="pd-team" x="878" y="165">Morocco</text>
<text class="pd-score" x="1002" y="165">1</text>
</g>
<g class="">
<text class="pd-team" x="878" y="189">Portugal</text>
<text class="pd-score" x="1002" y="189">0</text>
</g>
<text class="pd-meta" x="868" y="419"><tspan x="868"><tspan class="pd-meta-id">QF4</tspan> · Saturday 10 December</tspan><tspan x="898" dy="13">Al Bayt Stadium</tspan></text>
<rect class="pd-box" x="868" y="357" width="142" height="48" rx="3"/>
<line class="pd-divider" x1="868" y1="381" x2="1010" y2="381"/>
<g class="">
<text class="pd-team" x="878" y="373">England</text>
<text class="pd-score" x="1002" y="373">1</text>
</g>
<g class="pd-win">
<text class="pd-team" x="878" y="397">France</text>
<text class="pd-score" x="1002" y="397">2</text>
</g>
<text class="pd-meta" x="444" y="315"><tspan x="444"><tspan class="pd-meta-id">SF1</tspan> · Tuesday 13 December</tspan><tspan x="474" dy="13">Lusail Stadium</tspan></text>
<rect class="pd-box" x="444" y="253" width="142" height="48" rx="3"/>
<line class="pd-divider" x1="444" y1="277" x2="586" y2="277"/>
<g class="pd-win">
<text class="pd-team" x="454" y="269">Argentina</text>
<text class="pd-score" x="578" y="269">3</text>
</g>
<g class="">
<text class="pd-team" x="454" y="293">Croatia</text>
<text class="pd-score" x="578" y="293">0</text>
</g>
<text class="pd-meta" x="656" y="315"><tspan x="656"><tspan class="pd-meta-id">SF2</tspan> · Wednesday 14 December</tspan><tspan x="686" dy="13">Al Bayt Stadium</tspan></text>
<rect class="pd-box" x="656" y="253" width="142" height="48" rx="3"/>
<line class="pd-divider" x1="656" y1="277" x2="798" y2="277"/>
<g class="">
<text class="pd-team" x="666" y="269">Morocco</text>
<text class="pd-score" x="790" y="269">0</text>
</g>
<g class="pd-win">
<text class="pd-team" x="666" y="293">France</text>
<text class="pd-score" x="790" y="293">2</text>
</g>
<text class="pd-meta" x="550" y="116"><tspan x="550">Sunday 18 December Lusail</tspan><tspan x="550" dy="13">Stadium</tspan></text>
<rect class="pd-box" x="550" y="135" width="142" height="48" rx="3"/>
<line class="pd-divider" x1="550" y1="159" x2="692" y2="159"/>
<g class="pd-win">
<text class="pd-team" x="560" y="151">Argentina</text>
<text class="pd-score" x="684" y="151">3 <tspan class="pd-pens" dy="-1.5">(4)</tspan></text>
</g>
<g class="">
<text class="pd-team" x="560" y="175">France</text>
<text class="pd-score" x="684" y="175">3 <tspan class="pd-pens" dy="-1.5">(2)</tspan></text>
</g>
<text class="pd-meta" x="550" y="400"><tspan x="550">Saturday 17 December Khalifa</tspan><tspan x="550" dy="13">International Stadium</tspan></text>
<rect class="pd-box" x="550" y="419" width="142" height="48" rx="3"/>
<line class="pd-divider" x1="550" y1="443" x2="692" y2="443"/>
<g class="pd-win">
<text class="pd-team" x="560" y="435">Croatia</text>
<text class="pd-score" x="684" y="435">2</text>
</g>
<g class="">
<text class="pd-team" x="560" y="459">Morocco</text>
<text class="pd-score" x="684" y="459">1</text>
</g>
</svg>