<svg xmlns="http://www.w3.org/2000/svg" viewBox="0 0 1242 532" width="1242" height="532" font-family="sans-serif">
<style>
  .pd-bg { fill: #ffffff; }
  .pd-title { font: 600 18px sans-serif; fill: #111827; }
  .pd-season { font: 400 13px sans-serif; fill: #6b7280; }
  .pd-header { font: 600 15px sans-serif; fill: #374151; text-anchor: middle; }
  .pd-meta { font: 400 11px sans-serif; fill: #6b7280; }
  .pd-meta-id { font-weight: 700; }
  .pd-box { fill: #ffffff; stroke: #d1d5db; stroke-width: 1; }
  .pd-divider { stroke: #e5e7eb; stroke-width: 1; }
  .pd-team { font: 400 13px sans-serif; fill: #1f2937; }
  .pd-score { font: 400 13px sans-serif; fill: #1f2937; text-anchor: end; }
  .pd-pens { font-size: 11px; }
  .pd-win .pd-team, .pd-win .pd-score { font-weight: 700; fill: #065f46; }
  .pd-crest-frame { fill: none; stroke: #d1d5db; stroke-width: 1; }
  .pd-link { fill: none; stroke: #cbd5e1; stroke-width: 1.5; }
  @media (prefers-color-scheme: dark) {
    .pd-bg { fill: #0f172a; }
    .pd-title { fill: #f8fafc; }
    .pd-season { fill: #94a3b8; }
    .pd-header { fill: #cbd5e1; }
    .pd-meta { fill: #94a3b8; }
    .pd-box { fill: #1e293b; stroke: #334155; }
    .pd-divider { stroke: #334155; }
    .pd-team { fill: #e5e7eb; }
    .pd-score { fill: #e5e7eb; }
    .pd-win .pd-team, .pd-win .pd-score { fill: #34d399; }
    .pd-crest-frame { stroke: #334155; }
    .pd-link { stroke: #475569; }
  }</style>
<rect class="pd-bg" width="1242" height="532"/>
<text class="pd-title" x="20" y="28">World Cup</text>
<text class="pd-season" x="128" y="28">Qatar 2022</text>
<text class="pd-header" x="91" y="68">Round of 16</text>
<text class="pd-header" x="1151" y="68">Round of 16</text>
<text class="pd-header" x="303" y="68">Quarterfinals</text>
<text class="pd-header" x="939" y="68">Quarterfinals</text>
<text class="pd-header" x="515" y="254">Semifinals</text>
<text class="pd-header" x="727" y="254">Semifinals</text>
<text class="pd-header" x="621" y="116">Final</text>
<text class="pd-header" x="621" y="404">Third place</text>
<path class="pd-link" d="M 162 138 L 197 138 L 197 178 L 232 178"/>
<path class="pd-link" d="M 162 242 L 197 242 L 197 202 L 232 202"/>
<path class="pd-link" d="M 162 346 L 197 346 L 197 386 L 232 386"/>
<path class="pd-link" d="M 162 450 L 197 450 L 197 410 L 232 410"/>
<path class="pd-link" d="M 1080 138 L 1045 138 L 1045 178 L 1010 178"/>
<path class="pd-link" d="M 1080 242 L 1045 242 L 1045 202 L 1010 202"/>
<path class="pd-link" d="M 1080 346 L 1045 346 L 1045 386 L 1010 386"/>
<path class="pd-link" d="M 1080 450 L 1045 450 L 1045 410 L 1010 410"/>
<path class="pd-link" d="M 374 190 L 409 190 L 409 282 L 444 282"/>
<path class="pd-link" d="M 374 398 L 409 398 L 409 306 L 444 306"/>
<path class="pd-link" d="M 868 190 L 833 190 L 833 282 L 798 282"/>
<path class="pd-link" d="M 868 398 L 833 398 L 833 306 L 798 306"/>
<text class="pd-meta" x="20" y="95"><tspan x="20"><tspan class="pd-meta-id">R16-1</tspan> · Saturday 03 December</tspan><tspan x="60" dy="13">Khalifa Internation…</tspan></text>
<rect class="pd-box" x="20" y="114" width="142" height="48" rx="3"/>
<line class="pd-divider" x1="20" y1="138" x2="162" y2="138"/>
<g class="pd-win">
<text class="pd-team" x="30" y="130">Netherlands</text>
<text class="pd-score" x="154" y="130">3</text>
</g>
<g class="">
<text class="pd-team" x="30" y="154">USA</text>
<text class="pd-score" x="154" y="154">1</text>
</g>
<text class="pd-meta" x="20" y="280"><tspan x="20"><tspan class="pd-meta-id">R16-2</tspan> · Saturday 03 December</tspan><tspan x="60" dy="13">Ahmad bin Ali Stadi…</tspan></text>
<rect class="pd-box" x="20" y="218" width="142" height="48" rx="3"/>
<line class="pd-divider" x1="20" y1="242" x2="162" y2="242"/>
<g class="pd-win">
<text class="pd-team" x="30" y="234">Argentina</text>
<text class="pd-score" x="154" y="234">2</text>
</g>
<g class="">
<text class="pd-team" x="30" y="258">Australia</text>
<text class="pd-score" x="154" y="258">1</text>
</g>
<text class="pd-meta" x="20" y="303"><tspan x="20"><tspan class="pd-meta-id">R16-3</tspan> · Monday 05 December</tspan><tspan x="60" dy="13">Al Janoub Stadium</tspan></text>
<rect class="pd-box" x="20" y="322" width="142" height="48" rx="3"/>
<line class="pd-divider" x1="20" y1="346" x2="162" y2="346"/>
<g class="">
<text class="pd-team" x="30" y="338">Japan</text>
<text class="pd-score" x="154" y="338">1 <tspan class="pd-pens" dy="-1.5">(1)</tspan></text>
</g>
<g class="pd-win">
<text class="pd-team" x="30" y="362">Croatia</text>
<text class="pd-score" x="154" y="362">1 <tspan class="pd-pens" dy="-1.5">(3)</tspan></text>
</g>
<text class="pd-meta" x="20" y="488"><tspan x="20"><tspan class="pd-meta-id">R16-4</tspan> · Monday 05 December</tspan><tspan x="60" dy="13">Stadium 974</tspan></text>
<rect class="pd-box" x="20" y="426" width="142" height="48" rx="3"/>
<line class="pd-divider" x1="20" y1="450" x2="162" y2="450"/>
<g class="pd-win">
<text class="pd-team" x="30" y="442">Brazil</text>
<text class="pd-score" x="154" y="442">4</text>
</g>
<g class="">
<text class="pd-team" x="30" y="466">South Korea</text>
<text class="pd-score" x="154" y="466">1</text>
</g>
<text class="pd-meta" x="1080" y="95"><tspan x="1080"><tspan class="pd-meta-id">R16-5</tspan> · Tuesday 06 December</tspan><tspan x="1120" dy="13">Education City Stad…</tspan></text>
<rect class="pd-box" x="1080" y="114" width="142" height="48" rx="3"/>
<line class="pd-divider" x1="1080" y1="138" x2="1222" y2="138"/>
<g class="pd-win">
<text class="pd-team" x="1090" y="130">Morocco</text>
<text class="pd-score" x="1214" y="130">0 <tspan class="pd-pens" dy="-1.5">(3)</tspan></text>
</g>
<g class="">
<text class="pd-team" x="1090" y="154">Spain</text>
<text class="pd-score" x="1214" y="154">0 <tspan class="pd-pens" dy="-1.5">(0)</tspan></text>
</g>
<text class="pd-meta" x="1080" y="280"><tspan x="1080"><tspan class="pd-meta-id">R16-6</tspan> · Tuesday 06 December</tspan><tspan x="1120" dy="13">Lusail Stadium</tspan></text>
<rect class="pd-box" x="1080" y="218" width="142" height="48" rx="3"/>
<line class="pd-divider" x1="1080" y1="242" x2="1222" y2="242"/>
<g class="pd-win">
<text class="pd-team" x="1090" y="234">Portugal</text>
<text class="pd-score" x="1214" y="234">6</text>
</g>
<g class="">
<text class="pd-team" x="1090" y="258">Switzerland</text>
<text class="pd-score" x="1214" y="258">1</text>
</g>
<text class="pd-meta" x="1080" y="303"><tspan x="1080"><tspan class="pd-meta-id">R16-7</tspan> · Sunday 04 December</tspan><tspan x="1120" dy="13">Al Bayt Stadium</tspan></text>
<rect class="pd-box" x="1080" y="322" width="142" height="48" rx="3"/>
<line class="pd-divider" x1="1080" y1="346" x2="1222" y2="346"/>
<g class="pd-win">
<text class="pd-team" x="1090" y="338">England</text>
<text class="pd-score" x="1214" y="338">3</text>
</g>
<g class="">
<text class="pd-team" x="1090" y="362">Senegal</text>
<text class="pd-score" x="1214" y="362">0</text>
</g>
<text class="pd-meta" x="1080" y="488"><tspan x="1080"><tspan class="pd-meta-id">R16-8</tspan> · Sunday 04 December</tspan><tspan x="1120" dy="13">Al Thumama Stadium</tspan></text>
<rect class="pd-box" x="1080" y="426" width="142" height="48" rx="3"/>
<line class="pd-divider" x1="1080" y1="450" x2="1222" y2="450"/>
<g class="pd-win">
<text class="pd-team" x="1090" y="442">France</text>
<text class="pd-score" x="1214" y="442">3</text>
</g>
<g class="">
<text class="pd-team" x="1090" y="466">Poland</text>
<text class="pd-score" x="1214" y="466">1</text>
</g>
<text class="pd-meta" x="232" y="147"><tspan x="232"><tspan class="pd-meta-id">QF1</tspan> · Friday 09 December</tspan><tspan x="262" dy="13">Lusail Stadium</tspan></text>
<rect class="pd-box" x="232" y="166" width="142" height="48" rx="3"/>
<line class="pd-divider" x1="232" y1="190" x2="374" y2="190"/>
<g class="">
<text class="pd-team" x="242" y="182">Netherlands</text>
<text class="pd-score" x="366" y="182">2 <tspan class="pd-pens" dy="-1.5">(3)</tspan></text>
</g>
<g class="pd-win">
<text class="pd-team" x="242" y="206">Argentina</text>
<text class="pd-score" x="366" y="206">2 <tspan class="pd-pens" dy="-1.5">(4)</tspan></text>
</g>
<text class="pd-meta" x="232" y="436"><tspan x="232"><tspan class="pd-meta-id">QF2</tspan> · Friday 09 December</tspan><tspan x="262" dy="13">Education City Stadium</tspan></text>
<rect class="pd-box" x="232" y="374" width="142" height="48" rx="3"/>
<line class="pd-divider" x1="232" y1="398" x2="374" y2="398"/>
<g class="pd-win">
<text class="pd-team" x="242" y="390">Croatia</text>
<text class="pd-score" x="366" y="390">1 <tspan class="pd-pens" dy="-1.5">(4)</tspan></text>
</g>
<g class="">
<text class="pd-team" x="242" y="414">Brazil</text>
<text class="pd-score" x="366" y="414">1 <tspan class="pd-pens" dy="-1.5">(2)</tspan></text>
</g>
<text class="pd-meta" x="868" y="147"><tspan x="868"><tspan class="pd-meta-id">QF3</tspan> · Saturday 10 December</tspan><tspan x="898" dy="13">Al Thumama Stadium</tspan></text>
<rect class="pd-box" x="868" y="166" width="142" height="48" rx="3"/>
<line class="pd-divider" x1="868" y1="190" x2="1010" y2="190"/>
<g class="pd-win">
<text class="pd-team" x="878" y="182">Morocco</text>
<text class="pd-score" x="1002" y="182">1</text>
</g>
<g class="">
<text class="pd-team" x="878" y="206">Portugal</text>
<text class="pd-score" x="1002" y="206">0</text>
</g>
<text class="pd-meta" x="868" y="436"><tspan x="868"><tspan class="pd-meta-id">QF4</tspan> · Saturday 10 December</tspan><tspan x="898" dy="13">Al Bayt Stadium</tspan></text>
<rect class="pd-box" x="868" y="374" width="142" height="48" rx="3"/>
<line class="pd-divider" x1="868" y1="398" x2="1010" y2="398"/>
<g class="">
<text class="pd-team" x="878" y="390">England</text>
<text class="pd-score" x="1002" y="390">1</text>
</g>
<g class="pd-win">
<text class="pd-team" x="878" y="414">France</text>
<text class="pd-score" x="1002" y="414">2</text>
</g>
<text class="pd-meta" x="444" y="332"><tspan x="444"><tspan class="pd-meta-id">SF1</tspan> · Tuesday 13 December</tspan><tspan x="474" dy="13">Lusail Stadium</tspan></text>
<rect class="pd-box" x="444" y="270" width="142" height="48" rx="3"/>
<line class="pd-divider" x1="444" y1="294" x2="586" y2="294"/>
<g class="pd-win">
<text class="pd-team" x="454" y="286">Argentina</text>
<text class="pd-score" x="578" y="286">3</text>
</g>
<g class="">
<text class="pd-team" x="454" y="310">Croatia</text>
<text class="pd-score" x="578" y="310">0</text>
</g>
<text class="pd-meta" x="656" y="332"><tspan x="656"><tspan class="pd-meta-id">SF2</tspan> · Wednesday 14 December</tspan><tspan x="686" dy="13">Al Bayt Stadium</tspan></text>
<rect class="pd-box" x="656" y="270" width="142" height="48" rx="3"/>
<line class="pd-divider" x1="656" y1="294" x2="798" y2="294"/>
<g class="">
<text class="pd-team" x="666" y="286">Morocco</text>
<text class="pd-score" x="790" y="286">0</text>
</g>
<g class="pd-win">
<text class="pd-team" x="666" y="310">France</text>
<text class="pd-score" x="790" y="310">2</text>
</g>
<text class="pd-meta" x="550" y="133"><tspan x="550">Sunday 18 December Lusail</tspan><tspan x="550" dy="13">Stadium</tspan></text>
<rect class="pd-box" x="550" y="152" width="142" height="48" rx="3"/>
<line class="pd-divider" x1="550" y1="176" x2="692" y2="176"/>
<g class="pd-win">
<text class="pd-team" x="560" y="168">Argentina</text>
<text class="pd-score" x="684" y="168">3 <tspan class="pd-pens" dy="-1.5">(4)</tspan></text>
</g>
<g class="">
<text class="pd-team" x="560" y="192">France</text>
<text class="pd-score" x="684" y="192">3 <tspan class="pd-pens" dy="-1.5">(2)</tspan></text>
</g>
<text class="pd-meta" x="550" y="417"><tspan x="550">Saturday 17 December Khalifa</tspan><tspan x="550" dy="13">International Stadium</tspan></text>
<rect class="pd-box" x="550" y="436" width="142" height="48" rx="3"/>
<line class="pd-divider" x1="550" y1="460" x2="692" y2="460"/>
<g class="pd-win">
<text class="pd-team" x="560" y="452">Croatia</text>
<text class="pd-score" x="684" y="452">2</text>
</g>
<g class="">
<text class="pd-team" x="560" y="476">Morocco</text>
<text class="pd-score" x="684" y="476">1</text>
</g>
</svg>