<?xml version="1.0" encoding="utf-8"?>
<!-- Generator: Adobe Illustrator 25.0.1, SVG Export Plug-In . SVG Version: 6.00 Build 0)  -->
<svg version="1.1" id="Camada_1" xmlns="http://www.w3.org/2000/svg" xmlns:xlink="http://www.w3.org/1999/xlink" x="0px" y="0px"
	 viewBox="0 0 1000.99 1000" style="enable-background:new 0 0 1000.99 1000;" xml:space="preserve">
<style type="text/css">
	.st0{fill:#FFFFFF;}
	.st1{fill:#E30016;}
	.st2{fill:#E5050F;}
	.st3{fill-rule:evenodd;clip-rule:evenodd;fill:#FFFFFF;}
	.st4{fill:#BDBEC0;}
	.st5{fill:#FECC00;}
</style>
<g>
	<g id="g3460_8_">
		<g id="g3313_8_">
			<g id="g3296_8_" transform="translate(1259.98, 3.93111e-07)">
				<g id="path3278_11_">
					<path class="st0" d="M-759.44,977.61c-43.85,0-86.38-8.59-126.43-25.53c-38.68-16.36-73.41-39.78-103.24-69.6
						c-29.83-29.83-53.25-64.56-69.6-103.24c-16.94-40.05-25.53-82.58-25.53-126.43s8.59-86.38,25.53-126.43
						c16.36-38.68,39.78-73.41,69.6-103.24c29.83-29.83,64.56-53.25,103.24-69.6c40.05-16.94,82.58-25.53,126.43-25.53
						s86.38,8.59,126.43,25.53c38.68,16.36,73.41,39.78,103.24,69.6c29.83,29.83,53.25,64.56,69.6,103.24
						c16.94,40.05,25.53,82.58,25.53,126.43s-8.59,86.38-25.53,126.43c-16.36,38.68-39.78,73.41-69.6,103.24
						c-29.83,29.83-64.56,53.25-103.24,69.6C-673.06,969.02-715.6,977.61-759.44,977.61z"/>
					<path class="st1" d="M-759.44,334.11c176.02,0,318.71,142.69,318.71,318.71s-142.69,318.71-318.71,318.71
						s-318.71-142.69-318.71-318.71S-935.46,334.11-759.44,334.11 M-759.44,321.92c-44.67,0-88,8.75-128.8,26.01
						c-39.4,16.67-74.79,40.52-105.18,70.91c-30.39,30.38-54.24,65.77-70.91,105.18c-17.26,40.8-26.01,84.14-26.01,128.8
						s8.75,88,26.01,128.8c16.67,39.4,40.52,74.79,70.91,105.18c30.38,30.38,65.77,54.24,105.18,70.91
						c40.8,17.26,84.14,26.01,128.8,26.01c44.67,0,88-8.75,128.8-26.01c39.4-16.67,74.79-40.52,105.18-70.91
						c30.38-30.38,54.24-65.77,70.91-105.18c17.26-40.8,26.01-84.14,26.01-128.8s-8.75-88-26.01-128.8
						c-16.67-39.4-40.52-74.79-70.91-105.18c-30.38-30.38-65.77-54.24-105.18-70.91C-671.44,330.67-714.78,321.92-759.44,321.92
						L-759.44,321.92z"/>
				</g>
				<path id="path2416_8_" class="st2" d="M-460.74,652.69c0.02,165.11-133.81,298.98-298.92,299.01
					c-165.11,0.02-298.98-133.81-299.01-298.92c0-0.03,0-0.06,0-0.09c-0.02-165.11,133.81-298.98,298.92-299.01
					c165.11-0.02,298.98,133.81,299.01,298.92C-460.74,652.63-460.74,652.66-460.74,652.69z"/>
				<g id="g3246_8_" transform="translate(220.968, 51.6129)">
					<path id="path3188_8_" class="st3" d="M-859.88,525.06c1.76-13.76,7.52-26.18,14.35-38.26l19.77,8.93l17.85-24.23l17.85,5.42
						c0.26,31.87-0.6,64.7,11.16,86.71l-8.93,11.16C-808.05,555.69-829.59,537.46-859.88,525.06z"/>
					<path id="path3190_8_" class="st3" d="M-893.11,558.09c-39.5-0.15-10.87-46.4-5.1-64.06c5.19-15.86-2.66-47.87-32.95-59.22
						v-40.6c59.63,17.28,66.28,57.03,100.6,38.78v20.12C-884.06,507.97-860.63,557.77-893.11,558.09z"/>
					<path id="path3192_8_" class="st3" d="M-1052.23,469.56c58.58-14.82,102.55-10.16,143.76-1.83c5.93,17.29,0.78,29.04-4.76,40.6
						c-40.31-6.59-83.41-8.28-135.35,5.49C-1057.35,500.58-1058.09,485.73-1052.23,469.56z"/>
					<path id="path3194_8_" class="st3" d="M-1017.54,434.75c-70.28,11.94-54.48,95.15,0,117.62v72.6
						c-154.36-44.56-126.47-212.45,0-229.43V434.75z"/>
					<path id="path3196_8_" class="st3" d="M-941.54,695.64c-20.91,2.83-42.66,2.32-64.86,0V514.13c21.62-2.2,43.24-2.94,64.86,0
						V695.64z"/>
					<path id="path3202_8_" class="st3" d="M-1233.9,605.13c37.6-18.19,45.91-58.1,100.68-98.26c1.57,18.62,3.7,36.8,11.62,50.34
						c-23.22,33.54-21.65,65.37,13.07,104.07c-8.08,18.52-17.91,31.79-28.56,42.59C-1185.92,674.81-1197.18,637.02-1233.9,605.13z"
						/>
					<path id="path3204_8_" class="st3" d="M-1059.1,739.18c13.93-15.38,17.8-26.74,23.74-38.93c36.97,7.78,80.03,10.95,144.65-2.22
						c6.75,13.53,4.18,26.22,1.9,38.93C-927.1,750.72-998.42,753.95-1059.1,739.18z"/>
					<path id="path3206_8_" class="st3" d="M-1165.76,733.17l4.75,20.57l28.49,1.9c32.85,23.26,67.98,45.11,115.84,59.19v-40.2
						c-25.92-4.41-42.62-17.47-55.07-34.5c36.87-39.66,44.35-89.45,21.02-99.59c-31.03-13.48-44.89,18.26-62.61,46.9
						C-1124.92,706.13-1141.6,724.74-1165.76,733.17z"/>
					<path id="path3208_8_" class="st3" d="M-941.34,393.14c0.15-30.74,23.72-27.02,34.84-15.94
						c-1.56-38.55-32.84-43.14-47.83-29.23c-4.44-7.3-10.19-12.87-19.34-17.42c-8.2,3.86-14.74,9.58-19.78,16.98
						c-14.16-12.92-46.4-9.73-47.83,29.08c11.93-10.29,34.4-13.93,34.4,16.68l0.15,58.85c21.06-1.57,42.83-1.73,65.47-0.16
						L-941.34,393.14z"/>
					<path id="path3216_8_" class="st3" d="M-941.27,816.22c0.15,30.74,23.72,27.02,34.84,15.94
						c-1.56,38.55-32.84,43.14-47.83,29.23c-4.44,7.3-10.19,12.87-19.34,17.42c-8.2-3.86-14.74-9.58-19.78-16.98
						c-14.16,12.92-46.4,9.73-47.83-29.08c11.93,10.29,34.4,13.93,34.4-16.68l0.15-58.85c21.06,1.57,42.83,1.73,65.47,0.16
						L-941.27,816.22z"/>
					<path id="path3218_8_" class="st3" d="M-931.76,581.58v69.54c79.53,26.45,66.94,125.51,1.02,123.14v40.03
						c85.26-8.45,118.26-61.33,118.79-112.86C-811.36,642.37-858.03,600.56-931.76,581.58z"/>
					<path id="path3222_8_" class="st3" d="M-803.19,698.95c0.1-9.08,0.91-17.14-5.09-34.94l18.32-12.21l20.69,16.96
						C-777.37,680.96-789.71,690.34-803.19,698.95z"/>
				</g>
			</g>
		</g>
	</g>
	<g>
		<g>
			<g>
				<g>
					<polygon class="st4" points="577.64,68.41 518.91,68.42 498.15,16.29 477.4,68.42 422.36,68.58 464.58,107.89 450.72,162.27 
						498.15,132.29 545.58,162.27 531.73,107.89 					"/>
				</g>
			</g>
			<g>
				<g>
					<polygon class="st5" points="561.7,216.65 515.02,216.66 498.53,175.23 482.04,216.66 438.31,216.78 471.85,248.02 
						460.84,291.23 498.53,267.41 536.22,291.23 525.21,248.02 					"/>
				</g>
			</g>
			<g>
				<g>
					<polygon class="st5" points="745.17,271 708.08,271.01 694.98,238.09 681.88,271.01 647.12,271.11 673.78,295.93 
						665.03,330.27 694.98,311.34 724.93,330.27 716.18,295.93 					"/>
				</g>
			</g>
			<g>
				<g>
					<polygon class="st5" points="352.04,271 314.95,271.01 301.85,238.09 288.75,271.01 253.99,271.11 280.65,295.93 271.9,330.27 
						301.85,311.34 331.8,330.27 323.05,295.93 					"/>
				</g>
			</g>
			<g>
				<g>
					<polygon class="st5" points="877.17,363.18 840.08,363.19 826.98,330.27 813.88,363.19 779.12,363.29 805.78,388.11 
						797.03,422.44 826.98,403.51 856.93,422.44 848.18,388.11 					"/>
				</g>
			</g>
			<g>
				<g>
					<polygon class="st5" points="221.87,363.18 184.78,363.19 171.68,330.27 158.57,363.19 123.82,363.29 150.48,388.11 
						141.73,422.44 171.68,403.51 201.63,422.44 192.88,388.11 					"/>
				</g>
			</g>
		</g>
	</g>
</g>
</svg>
