<?xml version="1.0" encoding="UTF-8" standalone="no"?>
<!-- Created with Inkscape (http://www.inkscape.org/) -->

<svg
   width="99.060242mm"
   height="156.5275mm"
   viewBox="0 0 99.060242 156.5275"
   version="1.1"
   id="svg1"
   xml:space="preserve"
   inkscape:export-filename="bitmsdap.svg"
   inkscape:export-xdpi="96"
   inkscape:export-ydpi="96"
   sodipodi:docname="bitmsdap.svg"
   xmlns:inkscape="http://www.inkscape.org/namespaces/inkscape"
   xmlns:sodipodi="http://sodipodi.sourceforge.net/DTD/sodipodi-0.dtd"
   xmlns="http://www.w3.org/2000/svg"
   xmlns:svg="http://www.w3.org/2000/svg"><sodipodi:namedview
     id="namedview1"
     pagecolor="#ffffff"
     bordercolor="#000000"
     borderopacity="0.25"
     inkscape:showpageshadow="2"
     inkscape:pageopacity="0.0"
     inkscape:pagecheckerboard="0"
     inkscape:deskcolor="#d1d1d1"
     inkscape:document-units="mm"><inkscape:page
       x="0"
       y="-1.1205541e-22"
       width="99.060242"
       height="156.5275"
       id="page1"
       margin="0"
       bleed="0" /></sodipodi:namedview><defs
     id="defs1"><style
       id="style1">
      .st0 {
        fill: #4a2e15;
      }

      .st0, .st1, .st2 {
        fill-rule: evenodd;
      }

      .st1 {
        fill: #fff;
      }

      .st2 {
        fill: #bea15e;
      }
    </style></defs><g
     inkscape:label="Layer 1"
     inkscape:groupmode="layer"
     id="layer1"
     transform="translate(-296.67859,182.80503)"><g
       id="g12"
       transform="matrix(0.26458333,0,0,0.26458333,267.4158,-183.30774)"><g
         id="g2"><path
           class="st1"
           d="m 482.3,185.7 -0.6,-7.4 -7.4,0.4 c -68.9,3.7 -125,-15.8 -171.4,-59.8 l -5.2,-5 -5.3,5 c -46.5,44 -102.5,63.5 -171.4,59.8 l -7.4,-0.4 -0.6,7.4 c -1.6,18.6 -2.4,37 -2.4,54.6 -0.1,79.7 15.8,149.9 47.5,208.8 30.3,56.5 75.9,104.2 135.6,141.8 l 4.1,2.6 4.1,-2.6 c 59.6,-37.6 105.2,-85.3 135.6,-141.7 31.6,-58.8 47.6,-129.1 47.5,-208.7 0,-17.7 -0.8,-36.1 -2.4,-54.8 z"
           id="path1" /><path
           class="st0"
           d="m 297.3,333.5 c 2.5,-1.7 14.3,-9.7 16.9,-11.4 -2.6,-1.8 -19.2,-13.5 -23.6,-16.6 1.3,5.3 6,25 6.8,28 z m 50.3,-76.2 c 1.3,1.9 11,16.2 12.2,18.2 1.7,-1.1 7,-4.7 7,-4.7 5.7,-3.9 9.3,-6.8 10.7,-8.7 1.3,-1.9 2,-3.8 2,-5.9 v 0 c 0,-2.2 -0.6,-4.1 -1.9,-5.9 -1.6,-2.3 -3.5,-3.8 -5.9,-4.3 -2.4,-0.6 -4.8,-0.3 -7.3,0.8 -1.9,0.8 -5.4,3 -10.8,6.6 0,0 -4.4,3 -6.1,4.1 z m 124.7,-62.5 -0.6,-7 -7,0.4 c -65.2,3.5 -118.2,-15 -162.2,-56.5 l -5,-4.7 -5,4.7 c -44,41.6 -97,60.1 -162.1,56.5 l -7,-0.4 -0.6,7 c -1.5,17.6 -2.2,35 -2.3,51.7 -0.1,75.3 15,141.8 44.9,197.5 28.7,53.4 71.8,98.5 128.2,134.1 l 3.9,2.4 3.8,-2.4 c 56.4,-35.5 99.5,-80.6 128.2,-134 29.9,-55.7 45,-122.1 44.9,-197.4 0,-16.7 -0.8,-34.1 -2.3,-51.8 z m -91.6,31.6 c 5.6,1.8 10.4,5.7 14.5,11.7 3.1,4.6 4.9,9.1 5.3,13.5 0,0.9 0.1,1.9 0.1,2.8 0,3.3 -0.6,6.4 -1.7,9.2 -1.4,3.6 -3.4,6.6 -5.7,9.1 -3.2,3.2 -8.2,7.1 -15,11.6 0,0 -6.8,4.6 -8.6,5.8 1.4,2.1 18.3,27.2 18.3,27.2 l -17.2,11.6 -50.1,-74.3 25,-16.9 c 9.2,-6.2 15.4,-9.8 18.8,-11 5.2,-1.9 10.7,-1.9 16.3,-0.1 z M 306.5,372 288.2,384.3 267.7,290 l 16.5,-11.2 0.8,-0.5 80.6,53.7 -18.7,12.6 c 0,0 -16.1,-11.1 -17.5,-12 -1.4,1 -26.5,17.9 -27.9,18.9 0.4,1.7 5,20.5 5,20.5 z M 143.9,339.6 c -5.8,-28.9 -8.8,-59.7 -8.8,-92.4 0,-32.7 0,-0.5 0,-0.8 0,-14.1 0.6,-28.8 1.7,-43.7 62.9,1.9 116.9,-17 160.8,-56.2 21,18.8 44.3,32.8 69.8,42.3 z m 41.1,19.5 c 1.9,-11.2 8.3,-20.6 18.9,-27.7 9.3,-6.3 18.8,-8.7 28.2,-7.2 5.6,0.8 11.4,3.7 17.2,8.5 l 1.1,0.9 -14.4,15.5 -1,-1 c -3.1,-2.9 -6.7,-4.5 -10.6,-4.8 -3.9,-0.3 -7.7,0.8 -11.4,3.3 -5.1,3.4 -8.1,8.1 -8.9,13.8 -0.8,5.8 1.7,12.9 7.2,21.1 5.9,8.8 11.8,14 17.4,15.5 5.6,1.5 10.8,0.6 15.9,-2.8 3.7,-2.5 6.1,-5.7 7.2,-9.8 1.1,-4 0.6,-9.1 -1.6,-14.9 l -0.5,-1.4 20.1,-6.1 0.4,1.3 c 3.2,9.6 3.4,18.3 0.8,25.9 -2.7,7.5 -8.1,14.1 -16.3,19.6 -10.1,6.8 -20.8,9.1 -31.8,6.7 -11,-2.4 -20.6,-9.4 -28.4,-21 -8.2,-12.2 -11.5,-24.1 -9.5,-35.3 z m 232,78 c -26.8,50 -67,92.4 -119.3,126.2 -39,-25.2 -71.3,-55.2 -96.3,-89.5 l 256,-172.7 c -5.5,50.7 -19,96.3 -40.4,136 z"
           id="path2" /></g><polygon
         class="st2"
         points="246.5,38.6 285.1,38.7 297,1.9 308.9,38.7 347.5,38.6 316.2,61.3 328.2,98 297,75.2 265.8,98 277.8,61.3 "
         id="polygon2" /></g></g></svg>
